<?xml version="1.0" encoding="utf-8"?>
<!-- Generator: Adobe Illustrator 19.1.0, SVG Export Plug-In . SVG Version: 6.00 Build 0)  -->
<svg version="1.1" id="Layer_1" xmlns="http://www.w3.org/2000/svg" xmlns:xlink="http://www.w3.org/1999/xlink" x="0px" y="0px"
	 viewBox="0 0 497.6 71.7" style="enable-background:new 0 0 497.6 71.7;" xml:space="preserve">
<style type="text/css">
	.st0{fill:#000000;}
</style>
<g>
	<g>
		<path class="st0" d="M151.2,64.6c0.6-0.5,0.9-1.2,0.9-2.1c0-1.4-0.6-3.1-3.7-3.1h-7v11.9h7.4c2.5,0,4.1-1.4,4.1-3.7
			C152.9,66.4,152.3,65.4,151.2,64.6z M148.5,64h-5.3v-2.8h5.3c1.1,0,1.7,0.5,1.7,1.4C150.2,63.6,149.6,64,148.5,64z M149.1,69.7
			h-5.8v-3.9h5.8c1.2,0,1.9,0.7,1.9,2C151,68.9,150.3,69.7,149.1,69.7z"/>
		<polygon class="st0" points="163.6,65.9 168.2,65.9 168.2,64.2 163.6,64.2 163.6,61.2 171.3,61.2 171.3,59.5 161.8,59.5 161.8,71.4 
			171.7,71.4 171.7,69.7 163.6,69.7 		"/>
		<polygon class="st0" points="184.2,68.4 179.9,59.5 177.9,59.5 183.6,71.4 184.8,71.4 190.6,59.5 188.5,59.5 		"/>
		<polygon class="st0" points="199.9,65.9 204.5,65.9 204.5,64.2 199.9,64.2 199.9,61.2 207.5,61.2 207.5,59.5 198.1,59.5 198.1,71.4 208,71.4 
			208,69.7 199.9,69.7 		"/>
		<path class="st0" d="M226.7,62.9c0-2.1-1.4-3.4-3.8-3.4h-6.8v11.9h1.8v-5h4.1l2.9,5h2.1l-2.9-5.1C225.7,65.9,226.7,64.6,226.7,62.9z
			 M217.9,61.2h4.9c1.2,0,1.9,0.6,1.9,1.7c0,1.1-0.7,1.7-2,1.7h-4.9V61.2z"/>
		<polygon class="st0" points="237.2,59.5 235.4,59.5 235.4,71.4 244.7,71.4 244.7,69.7 237.2,69.7 		"/>
		<polygon class="st0" points="254.2,63.9 250.2,59.5 247.8,59.5 253.3,65.5 253.3,71.4 255.1,71.4 255.1,65.5 260.6,59.5 258.2,59.5 		"/>
		<polygon class="st0" points="288.8,64 282.4,64 282.4,59.5 280.6,59.5 280.6,71.4 282.4,71.4 282.4,65.8 288.8,65.8 288.8,71.4 290.7,71.4 
			290.7,59.5 288.8,59.5 		"/>
		<rect class="st0" x="300.2" y="59.4" width="1.9" height="12.1"/>
		<polygon class="st0" points="313.4,59.5 311.5,59.5 311.5,71.4 320.9,71.4 320.9,69.7 313.4,69.7 		"/>
		<polygon class="st0" points="330.5,59.5 328.7,59.5 328.7,71.4 338,71.4 338,69.7 330.5,69.7 		"/>
		<path class="st0" d="M352.2,64.2c-0.6-0.1-1.2-0.1-1.7-0.1c-1.3-0.1-2.3-0.1-3-0.6c-0.3-0.3-0.5-0.5-0.5-0.9c0-0.9,1.2-1.6,2.8-1.6
			c1.6,0,3.1,0.6,4.5,1.7l0.2,0.1l1.1-1.5l-0.2-0.1c-1.7-1.3-3.7-1.9-5.6-1.9c-2.8,0-4.7,1.4-4.7,3.4c0,1.1,0.6,2,1.8,2.6
			c1.1,0.5,2.3,0.6,4,0.7c0.3,0,0.6,0,0.9,0.1c1.6,0.1,2.5,0.8,2.5,1.8c0,1.3-1.4,2.2-3.4,2.2c-1.7,0-3.5-0.7-5-1.9l-0.2-0.1
			l-1.1,1.6l0.2,0.1c1.8,1.4,3.8,2.1,6.1,2.1c3.6,0,5.3-2,5.3-3.9C356.2,65.9,354.7,64.5,352.2,64.2z"/>
	</g>
	<g>
		<g>
			<path class="st0" d="M124,0.9h-5.7c-0.9,0-1.4,0.4-1.4,1.1c0,0.9,0.7,1.1,1.3,1.3c0.1,0,0.2,0.1,0.3,0.1c0.7,0.2,1,0.3,1.1,1
				c0.1,0.4,0.1,1.3,0.1,1.9c0,0.1,0,0.3,0,0.4v19c-2.4-3.9-4.8-7.7-7.2-11l-2.4-3.1c-0.1-0.1-7.9-10.7-9.5-10.7h-5.3
				c-1.2,0-1.5,0.5-1.5,1c0,0.8,0.8,1,1.3,1.1l0.2,0c1.9,0.4,1.9,1.8,1.9,3.6v22.7c0,0.3,0,0.5,0,0.8c0,1.6,0,2.1-1.9,2.4
				c-0.6,0.1-1.2,0.4-1.2,1.2c0,0.7,0.5,1.2,1.3,1.2h6.3c0.8,0,1.3-0.5,1.3-1.2c0-1-0.7-1.2-1.4-1.4l-0.1,0
				c-1.2-0.3-1.3-0.9-1.3-2.1V5.7c4.9,5.2,8.8,11.3,12.6,17.2c0.4,0.6,0.7,1.1,1.1,1.7c0.7,1,1.3,2,2,3c1.5,2.1,3,4.3,4.1,6.7l0,0
				c0.2,0.5,0.7,1.3,1.4,1.3c0.3,0,0.6-0.1,0.8-0.3c0.4-0.4,0.4-1.3,0.4-1.9c0-0.1,0-0.2,0-0.3V6.4c0-0.1,0-0.2,0-0.3
				c0-0.6,0-1.6,0.1-1.9c0.1-0.4,0.6-0.6,1.1-0.8c0.1,0,0.2-0.1,0.3-0.1l0.1,0c0.5-0.2,1.2-0.4,1.2-1.1C125.5,1.4,124.9,0.9,124,0.9
				z"/>
			<path class="st0" d="M223.2,17.8c-1.8-1.4-4.4-2.1-6.7-2.6l-4.2-1c-2.8-0.7-6-2-6-5.8c0-3.5,3.3-5.5,6.5-5.5c4.8,0,7.2,2.6,8.5,4.1
				c0.6,0.7,1.1,1.2,1.5,1.2c0.2,0,0.4-0.1,0.5-0.2c0.3-0.3,0.3-1,0.3-1.4l0-0.1c0-0.6,0-2.1-0.1-2.7c-0.2-0.6-0.5-0.9-1.1-1.2
				c-2.3-1.4-5.4-2.3-8.5-2.3c-3.5,0-6.2,0.9-8.3,2.7c-2.2,1.8-3.5,4.4-3.5,7.1c0,6.6,5.8,7.9,11.3,9.2c4.8,1.1,9.3,2.1,9.3,6.6
				c0,4.6-4.4,7.1-8.8,7.1c-2.5,0-4.8-0.6-6.6-1.8c-1.7-1.1-2.6-2.4-3.5-4.1c-0.4-0.7-0.8-1.3-1.7-1.3c-0.9,0-1.4,0.8-1.4,1.6
				c0,2.3,2.6,4.9,4,6c2.2,1.6,5.1,2.4,8.6,2.4c3.8,0,6.9-1,9.2-2.9c2.4-2,3.9-4.9,3.9-7.9C226.5,22.1,225.3,19.5,223.2,17.8z"/>
			<path class="st0" d="M273.7,4.8c-0.3-2.1-0.6-3.2-0.9-3.5C272.5,1,272.2,1,272,0.9c-0.1,0-0.1,0-0.2,0h-25.6c-1.1,0-1.3,2.5-1.4,3.7
				c0,0.2,0,0.3,0,0.4c0,0.1,0,0.2-0.1,0.3c0,0.2-0.1,0.5-0.1,0.8c0,0.7,0.4,1.2,1,1.2c0.5,0,1-0.4,1.3-0.8c0.1-0.1,0.2-0.1,0.2-0.2
				c1.4-1.2,2.2-1.9,4.1-2.3c1-0.2,2.6-0.5,3.8-0.5c0.8,0,1.3,0.1,1.6,0.4c0.4,0.4,0.4,1,0.3,1.9c0,0.1,0,0.3,0,0.5V30l0,0.4
				c0,1.5,0,1.8-1.5,2.3c-0.6,0.2-1.3,0.4-1.3,1.2c0,1.2,1.2,1.2,1.8,1.2h6.4c0.7,0,1.8,0,1.8-1.2c0-0.8-0.6-1-1.2-1.2l-0.3-0.1
				c-0.6-0.2-1.2-0.3-1.2-0.9V6.3c0-1.1,0-1.9,0.4-2.3c0.3-0.3,0.9-0.5,1.9-0.5c1.1,0,2.9,0.2,3.9,0.5c1.6,0.5,2.2,1,3.3,1.9
				l0.3,0.2c0.1,0,0.1,0.1,0.2,0.2c0.4,0.4,0.9,0.8,1.4,0.8c0.6,0,1-0.4,1-1.1C273.9,5.7,273.8,5.3,273.7,4.8L273.7,4.8z"/>
			<path class="st0" d="M367.3,17.8c-1.8-1.4-4.4-2.1-6.7-2.6l-4.2-1c-2.8-0.7-6-2-6-5.8c0-3.5,3.3-5.5,6.5-5.5c4.8,0,7.1,2.6,8.5,4.1
				c0.6,0.7,1.1,1.2,1.5,1.2c0.2,0,0.4-0.1,0.6-0.2c0.3-0.3,0.3-1,0.3-1.4l0-0.1c0-0.6,0-2.1-0.2-2.7c-0.2-0.6-0.5-0.9-1.1-1.2
				c-2.3-1.4-5.4-2.3-8.5-2.3c-3.5,0-6.2,0.9-8.3,2.7c-2.2,1.8-3.5,4.4-3.5,7.1c0,6.6,5.8,7.9,11.3,9.2c4.8,1.1,9.3,2.1,9.3,6.6
				c0,4.6-4.4,7.1-8.8,7.1c-2.5,0-4.8-0.6-6.6-1.8c-1.7-1.1-2.6-2.5-3.5-4.1c-0.4-0.6-0.8-1.3-1.7-1.3c-0.9,0-1.4,0.8-1.4,1.6
				c0,2.3,2.6,4.9,4,6c2.2,1.6,5.1,2.4,8.6,2.4c3.8,0,6.9-1,9.2-2.9c2.4-2,3.9-4.9,3.9-7.9C370.6,22.1,369.4,19.5,367.3,17.8z"/>
			<path class="st0" d="M400.9,5.4c0-1.4,0-1.6,1.5-2.1l0.1,0c0.6-0.2,1.1-0.4,1.1-1.2c0-1.1-1.1-1.1-1.7-1.1h-6.4c-0.7,0-1.8,0-1.8,1.1
				c0,0.8,0.6,1.1,1.2,1.3l0.2,0.1c0.1,0,0.2,0,0.3,0.1c0.7,0.2,1.2,0.4,1.2,0.8V30l0,0.3c0,1.5,0,1.8-1.5,2.3
				c-0.6,0.2-1.3,0.4-1.3,1.2c0,1.2,1.2,1.2,1.8,1.2h6.4c0.7,0,1.8,0,1.8-1.2c0-0.8-0.6-1-1.2-1.2l-0.2-0.1c-0.1,0-0.2-0.1-0.4-0.1
				c-0.6-0.2-1-0.4-1-0.8V5.9C400.9,5.7,400.9,5.6,400.9,5.4z"/>
			<path class="st0" d="M73.3,32.7c-0.8-0.5-1.2-0.7-1.6-1.6l-1.8-5C67.3,18,63.6,9.4,60,3.2L59.9,3c-0.7-1.3-1.8-3-2.6-3
				c-0.7,0-1.4,1.3-2.2,2.9l-0.2,0.3c-3.4,6.1-7.1,14.7-9.9,22.9l-1.7,4.8c-0.4,0.9-0.6,1.2-1.4,1.7c-0.4,0.2-0.8,0.6-0.8,1.2
				c0,1.2,1.6,1.2,2.2,1.2c0.2,0,0.4,0,0.6,0c0.1,0,0.3,0,0.4,0h2.7c0.1,0,0.3,0,0.4,0c0.2,0,0.4,0,0.6,0c0.8,0,1.8-0.1,1.8-1.2
				c0-0.6-0.5-0.9-1-1.1c-0.7-0.4-1.5-0.8-1.5-2.4c0-0.2,0-0.5,0.1-0.8c0.4-2.3,1.7-5.9,3.6-10.7l0.1-0.3c1.7-4.2,3.5-8,3.7-8.5h0
				l1.8-4.1l2,4.4c0.5,1,1.8,3.8,3.3,7.1l0.2,0.4h0l0.1,0.2c2.2,5,3.6,8.9,4.2,11.3h0l0.1,0.2c0.3,1,0.5,1.7,0.5,2
				c0,0.7-0.5,0.9-1.1,1.1c-0.6,0.2-1.2,0.5-1.2,1.3c0,1.2,1.3,1.2,1.8,1.2h5.9c0.4,0,0.8,0,1.2-0.1c0.4-0.2,0.6-0.5,0.6-1
				C74.1,33.2,73.7,32.9,73.3,32.7z"/>
			<path class="st0" d="M178.9,32.7c-0.8-0.5-1.2-0.7-1.6-1.6l-1.8-5c-2.6-8.1-6.3-16.7-9.9-22.9L165.5,3c-0.7-1.3-1.8-3-2.6-3
				c-0.7,0-1.4,1.4-2.3,2.9l-0.2,0.3c-3.4,6.1-7,14.5-9.9,22.9l-1.7,4.8c-0.4,0.9-0.6,1.2-1.4,1.7c-0.4,0.2-0.8,0.6-0.8,1.2
				c0,1.2,1.6,1.2,2.1,1.2c0.2,0,0.4,0,0.6,0c0.1,0,0.3,0,0.4,0h2.7c0.1,0,0.3,0,0.4,0c0.2,0,0.4,0,0.6,0c0.5,0,1.8,0,1.8-1.2
				c0-0.6-0.5-0.9-1-1.1c-0.7-0.4-1.5-0.8-1.5-2.4c0-0.2,0-0.5,0.1-0.8c0.4-2.3,1.6-5.9,3.6-10.7l0.1-0.3c1.9-4.6,3.8-8.6,3.8-8.6
				l1.8-4l2,4.4c0.4,0.9,1.8,3.8,3.3,7.1l0.2,0.4h0l0.1,0.2c1.5,3.5,3.5,8.3,4.2,11.3h0l0.1,0.2c0.3,1,0.5,1.7,0.5,2
				c0,0.7-0.5,0.9-1.1,1.1c-0.6,0.2-1.2,0.5-1.2,1.3c0,1.2,1.2,1.2,1.8,1.2h5.9c0.4,0,0.8,0,1.2-0.1c0.4-0.2,0.6-0.5,0.6-1
				C179.7,33.2,179.3,32.9,178.9,32.7z"/>
			<path class="st0" d="M323.8,32.7c-0.8-0.5-1.2-0.7-1.5-1.6l-1.8-5c-2.6-8.1-6.3-16.7-9.9-22.9c0-0.1-0.1-0.1-0.1-0.2c-0.8-1.5-1.8-3-2.6-3
				c-0.7,0-1.4,1.4-2.3,2.9l-0.1,0.3c-3.4,6.1-7.1,14.7-9.9,22.9l-1.7,4.8c-0.4,0.9-0.6,1.2-1.4,1.7c-0.4,0.2-0.8,0.6-0.8,1.2
				c0,1.2,1.6,1.2,2.1,1.2c0.2,0,0.4,0,0.6,0c0.1,0,0.3,0,0.4,0h2.7c0.1,0,0.3,0,0.4,0c0.2,0,0.4,0,0.6,0c0.8,0,1.8-0.1,1.8-1.2
				c0-0.6-0.5-0.9-1-1.1c-0.7-0.4-1.5-0.8-1.5-2.4c0-0.2,0-0.5,0.1-0.8l0-0.1c0.4-2.3,1.6-5.7,3.6-10.6l0.1-0.3
				c1.9-4.6,3.8-8.6,3.8-8.6l1.8-4l2,4.4c0.5,1,1.8,3.9,3.3,7.1l0.2,0.4h0l0.1,0.2c1.5,3.5,3.5,8.2,4.2,11.3H317l0.1,0.2
				c0.3,1,0.5,1.7,0.5,1.9c0,0.7-0.5,0.9-1.1,1.1c-0.6,0.2-1.2,0.5-1.2,1.3c0,1.2,1.3,1.2,1.8,1.2h5.9c0.4,0,0.8,0,1.2-0.1
				c0.4-0.2,0.6-0.5,0.6-1C324.7,33.2,324.3,32.9,323.8,32.7z"/>
			<path class="st0" d="M457.1,32.7c-0.8-0.5-1.2-0.7-1.6-1.6l-1.8-5c-2.6-8.1-6.3-16.7-9.9-22.9L443.7,3c-0.8-1.4-1.8-3-2.6-3
				c-0.6,0-1.4,1.3-2.2,2.8l-0.2,0.3c-3.3,6-7.1,14.6-9.9,22.9l-1.7,4.8c-0.4,0.9-0.6,1.2-1.4,1.7c-0.4,0.2-0.8,0.6-0.8,1.2
				c0,1.1,1.2,1.2,2.1,1.2c0.2,0,0.4,0,0.6,0c0.1,0,0.3,0,0.4,0h2.7c0.1,0,0.3,0,0.4,0c0.2,0,0.4,0,0.6,0c0.8,0,1.8-0.1,1.8-1.2
				c0-0.6-0.5-0.9-1-1.1c-0.7-0.4-1.5-0.8-1.5-2.4c0-0.2,0-0.5,0.1-0.8c0.4-2.3,1.6-5.9,3.6-10.7l0.1-0.3c1.9-4.6,3.8-8.6,3.8-8.6
				l1.8-4l2,4.4c0.5,1,1.8,3.9,3.3,7.1l0.2,0.4h0l0.1,0.2c1.5,3.5,3.5,8.3,4.2,11.3h0l0.1,0.2c0.3,1.1,0.5,1.7,0.5,2
				c0,0.7-0.5,0.9-1.1,1.1c-0.6,0.2-1.2,0.5-1.2,1.3c0,1.2,1.3,1.2,1.8,1.2h5.9c0.4,0,0.8,0,1.2-0.1c0.4-0.2,0.6-0.5,0.6-1
				C457.9,33.2,457.5,32.9,457.1,32.7z"/>
		</g>
		<path class="st0" d="M153.5,23.3c5.7-4.5,10.9-4.9,16.3-2.8c0.4,0.1,1.9,1,1.9,2.2c0,0.5-0.6,0.9-1.3,0.3c-5.1-2.6-10.9-0.3-17.3,4.1"/>
		<path class="st0" d="M298.6,22.8c5.7-4.5,10.9-4.9,16.3-2.8c0.4,0.1,1.9,1,1.9,2.2c0,0.5-0.6,0.9-1.3,0.3c-5.1-2.6-10.9-0.3-17.3,4.1"/>
		<path class="st0" d="M66.5,23.1c0,0.5-0.9,0.8-1.6,0.2c-6.6-3.6-13.6,1.4-20,4.4c-12.6,6-32.9,9.9-42.7-2.7c-2.7-3.5-3.6-9.6,1-12
			c2.2-1.1,5-0.9,6.3,0.9c0.8,1.1,0.8,3.6-1,4c-1.8,0.4-1.9-0.8-2.5-1.7c-0.6-0.8-2.3,0-3,0.6c-2.2,2-0.5,5.6,1.1,7.4
			c9,10,22.2,6.6,33.1,2.8c10.9-3.8,17.8-10.1,27.8-5.7C65.5,21.5,66.5,21.9,66.5,23.1z"/>
		<path class="st0" d="M431.2,24.6c0-0.5,1.4-1,2-0.4c6.8,3.1,15.7-3,22-6.1c12.6-6,30.3-8.2,40.1,4.5c2.7,3.5,3.7,9.7-0.9,12.1
			c-2.2,1.1-5,0.9-6.3-0.9c-0.8-1.1-0.8-3.6,1-4c1.8-0.4,2,0.7,2.5,1.7c0.5,1.1,2.1,0.6,2.8-0.1c2.2-2,0.5-6-1.1-7.8
			c-8.6-9.9-22.1-7.3-33.1-3.5c-10.9,3.8-17.9,10-27.6,6.3C432.2,26.2,431.2,25.8,431.2,24.6z"/>
	</g>
</g>
<g>
</g>
<g>
</g>
<g>
</g>
<g>
</g>
<g>
</g>
<g>
</g>
</svg>
