<svg width="83.5" height="30" viewBox="6.5 0 83.5 30" xmlns="http://www.w3.org/2000/svg">
        <path d="M12.2613 10.2808L12.2612 10.2808C12.1532 10.4004 12.0414 10.5241 11.9223 10.6522V10.648V0.994385C10.7239 1.62588 9.48385 1.61707 8.24884 1.6083C7.83277 1.60534 7.41727 1.60239 7.00415 1.62393V2.42232H9.41452V2.87467C9.41452 4.13683 9.41478 5.39912 9.41504 6.66148V6.66167V6.66186V6.66205V6.66224C9.41581 10.4492 9.41659 14.2368 9.41037 18.0232C9.41037 18.4204 9.38616 18.8175 9.36194 19.2147C9.34485 19.495 9.32776 19.7754 9.31918 20.0557C9.31089 20.3038 9.21555 20.3809 8.97514 20.3663C8.74588 20.3533 8.51461 20.3563 8.28343 20.3594C8.18232 20.3608 8.08122 20.3621 7.98032 20.3621H7V21.1647H11.657C11.7254 20.5664 11.7938 19.9765 11.8663 19.3511C11.8894 19.3859 11.911 19.4179 11.9314 19.4482L11.932 19.4491L11.932 19.4492C11.97 19.5056 12.004 19.5561 12.0363 19.6075C12.4715 20.3121 13.0767 20.8124 13.8436 21.1105C16.4425 22.1257 19.5306 20.9646 20.9254 18.4568C21.7462 16.981 22.0115 15.3884 21.8933 13.7249C21.8042 12.4658 21.4685 11.2776 20.7203 10.2311C18.9379 7.73172 14.9316 7.64834 12.8985 9.60575C12.6812 9.81598 12.4786 10.0401 12.2613 10.2808ZM11.9185 14.8182C11.9204 14.599 11.9223 14.3798 11.9223 14.1605L11.9182 14.1647C11.9177 13.9965 11.9168 13.8283 11.916 13.6601C11.9129 13.0717 11.9099 12.4836 11.9244 11.8967C11.9285 11.7216 11.9928 11.5215 12.0943 11.3797C13.0601 10.0143 14.6933 9.38895 16.2892 9.75584C17.6488 10.0685 18.4322 11.0045 18.8467 12.2636C19.4602 14.123 19.4747 16.02 18.9731 17.9107C18.7513 18.7445 18.3368 19.4762 17.6135 19.9827C15.543 21.4357 12.6581 20.3059 12.0985 17.8148C11.9907 17.3312 11.9472 16.8267 11.9285 16.3285C11.9097 15.8259 11.9141 15.3222 11.9185 14.8182ZM64.5925 9.68172H68.2858L68.2878 9.67755C68.2294 9.88831 68.1709 10.096 68.113 10.3016L68.1129 10.302C67.9738 10.7959 67.8381 11.278 67.7138 11.7621C67.319 13.2925 66.9265 14.8229 66.534 16.3532L66.533 16.3568L66.5321 16.3604L66.5312 16.364L66.5303 16.3676L66.5299 16.3689L66.5296 16.3702L66.5292 16.3716L66.5289 16.3729C65.9875 18.4837 65.4461 20.5942 64.8992 22.704C64.5884 23.8985 64.236 25.0825 63.5997 26.154C63.1189 26.9649 62.5013 27.609 61.5396 27.8092C60.9158 27.9384 60.3003 27.9363 59.7241 27.6049C59.8166 27.5766 59.9091 27.5696 60.0005 27.5626L60.0006 27.5626L60.0298 27.5603L60.0702 27.5569C60.7251 27.4985 61.1914 27.1275 61.3324 26.5563C61.5231 25.785 61.1624 25.0262 60.4847 24.7678C59.693 24.4655 58.7811 24.7844 58.4163 25.4911C57.8401 26.6147 58.3935 27.9968 59.6122 28.4345C60.75 28.8452 61.8609 28.6763 62.9303 28.1865C64.2899 27.5632 65.2288 26.4771 66.0039 25.2347C67.0754 23.5128 67.7656 21.6242 68.2899 19.6772C69.018 16.9742 69.7138 14.2608 70.4094 11.5482L70.4096 11.5474C70.5417 11.0325 70.6737 10.5175 70.806 10.0027C70.8702 9.74843 70.9697 9.6713 71.2267 9.67338C72.282 9.6846 73.3361 9.6835 74.3908 9.68239H74.391C74.7075 9.68205 75.0241 9.68172 75.3407 9.68172C75.4208 9.68172 75.4997 9.6877 75.5738 9.69332L75.6166 9.69652L75.6433 9.6984V20.3756H73.4423V21.1656H80.3895V20.361H78.178V8.32466C78.0013 8.37326 77.8288 8.43122 77.6588 8.48835C77.2964 8.61009 76.9453 8.72806 76.5884 8.74366C75.2921 8.79963 73.9935 8.81498 72.6944 8.83035C72.2032 8.83616 71.7118 8.84197 71.2205 8.84998C71.2082 8.84998 71.1958 8.84177 71.1775 8.82959C71.1681 8.82334 71.1572 8.81605 71.1438 8.80828C71.1468 8.79431 71.1497 8.78013 71.1525 8.76579L71.1601 8.72675C71.1724 8.663 71.1852 8.59705 71.2039 8.53312C71.2952 8.23194 71.3828 7.92929 71.4704 7.6266C71.6794 6.90482 71.8885 6.18271 72.1469 5.47922C72.3977 4.79757 72.7231 4.12634 73.1231 3.52181C73.8837 2.3753 75.0153 2.00633 76.3397 2.22938C76.5366 2.26238 76.7256 2.34279 76.9142 2.42301C76.9996 2.45934 77.0849 2.49563 77.1708 2.52747C76.9843 2.60252 76.8309 2.60252 76.6775 2.60252C75.9666 2.60877 75.4071 3.1049 75.3159 3.81157C75.2288 4.49531 75.5811 5.13735 76.1822 5.38333C76.8765 5.66684 77.6744 5.45421 78.1221 4.86428C78.833 3.92622 78.4993 2.43575 77.4381 1.82497C76.5179 1.29549 75.5252 1.31217 74.5366 1.53105C72.9677 1.87917 71.8091 2.85266 70.8557 4.10132C69.8319 5.4417 69.1625 6.96344 68.6402 8.55397C68.5594 8.80203 68.4433 8.87082 68.1967 8.86874C67.4094 8.85804 66.6233 8.85967 65.8367 8.8613C65.5506 8.86189 65.2643 8.86248 64.978 8.86248H64.5925V9.68172ZM49.3514 20.3736H51.5546V21.1678H44.8416V20.3757H46.8333C46.8365 20.3225 46.8405 20.2738 46.8443 20.228L46.8443 20.2279C46.8505 20.1536 46.8561 20.0871 46.8561 20.0213C46.8561 19.1656 46.8566 18.3096 46.857 17.4535V17.4533V17.453V17.4528V17.4477C46.8579 15.7366 46.8589 14.0252 46.8561 12.3147C46.8561 11.4225 46.653 10.5991 45.8468 10.08C45.0799 9.58803 44.2322 9.60263 43.3784 9.79858C42.4457 10.0112 41.6664 10.5073 41.0115 11.1952C40.91 11.3016 40.8436 11.485 40.8436 11.633C40.8384 13.0338 40.8374 14.4352 40.8364 15.8365C40.8353 17.2379 40.8343 18.6392 40.8291 20.0401C40.8291 20.3152 40.9203 20.3778 41.1732 20.3715C41.5562 20.3599 41.9402 20.3625 42.3322 20.3651C42.5024 20.3662 42.674 20.3674 42.8478 20.3674V21.1699H36.0664V20.3674H38.311V9.69435H36.0747V8.87928C36.4585 8.85952 36.8452 8.8602 37.233 8.86088H37.233C38.4407 8.86301 39.6582 8.86515 40.827 8.24974V10.6533L40.9454 10.5208L40.9455 10.5207L40.9459 10.5203C41.0881 10.3611 41.1956 10.2408 41.3058 10.1217C42.6364 8.69584 44.2571 8.04545 46.2012 8.30394C48.0437 8.54992 49.283 9.91323 49.3245 11.8269C49.3575 13.3739 49.3547 14.922 49.352 16.4697V16.4698V16.4699V16.4699C49.3507 17.1577 49.3495 17.8454 49.3514 18.5329V20.3736ZM54.8131 13.9197H63.5489C63.5359 13.8154 63.5251 13.718 63.5148 13.6252L63.5148 13.6246L63.5148 13.6245L63.5148 13.6244C63.4957 13.4522 63.4784 13.2957 63.4515 13.1401C63.2028 11.6955 62.637 10.4134 61.495 9.45663C58.952 7.32411 54.9789 8.07664 53.2463 11.0055C52.2225 12.7357 51.9613 14.6034 52.3157 16.565C52.8359 19.4376 55.0225 21.3408 57.9199 21.4513C59.7935 21.5221 61.4121 20.9781 62.6018 19.4438C63.236 18.6246 63.609 17.6865 63.7852 16.663C63.3652 16.6102 63.0874 16.7644 62.952 17.1258C62.8857 17.303 62.8173 17.4801 62.7344 17.649C62.0235 19.1207 60.8484 19.8712 59.2256 19.8941C57.58 19.917 56.3219 19.2458 55.5427 17.7511C55.0556 16.8173 54.8629 15.8083 54.8131 14.766C54.8063 14.5875 54.8085 14.4081 54.8107 14.2201V14.22V14.2199C54.8119 14.1225 54.8131 14.0228 54.8131 13.9197ZM60.6629 12.9818L60.6722 13.0775H60.6702H54.8152C54.8222 13.0156 54.8285 12.955 54.8347 12.8954L54.8347 12.8952L54.8347 12.8951C54.8507 12.7421 54.866 12.5955 54.8898 12.4501C55.01 11.6975 55.2297 10.9784 55.6463 10.3322C56.4277 9.1231 57.9655 8.67909 59.124 9.3795C59.4598 9.58171 59.7603 9.90898 59.9676 10.2467C60.4771 11.072 60.5692 12.0183 60.6629 12.9818ZM35.153 13.9343H26.3737C26.4068 15.7021 26.5954 17.3697 27.8141 18.733C29.2835 20.3778 33.0721 20.5758 34.3695 17.5594C34.4317 17.4177 34.4877 17.2717 34.5416 17.1258C34.6756 16.7617 34.9547 16.6095 35.3789 16.6693C35.2068 17.6345 34.8649 18.5246 34.2887 19.3146C33.0949 20.9531 31.4245 21.5326 29.4742 21.4513C26.4752 21.3242 24.2141 19.2146 23.8389 16.2003C23.6027 14.2971 23.8928 12.5022 24.9291 10.8617C26.5809 8.24554 30.0524 7.43881 32.6099 9.10439C33.9592 9.98407 34.6638 11.3036 34.983 12.8524C35.0307 13.0849 35.0643 13.3204 35.1013 13.5801L35.1013 13.5803C35.1174 13.6931 35.1341 13.8106 35.153 13.9343ZM32.3177 13.0755C32.2708 12.8422 32.2289 12.6138 32.1878 12.3895L32.1878 12.3894C32.1 11.9103 32.0157 11.45 31.8928 11.0013C31.7105 10.3364 31.3747 9.74643 30.7509 9.38372C29.584 8.70623 28.0711 9.10022 27.2773 10.2801C26.842 10.9284 26.6099 11.6538 26.4897 12.4189C26.4659 12.5717 26.4485 12.7267 26.4306 12.8862C26.4235 12.9486 26.4165 13.0116 26.4089 13.0755H32.3177ZM85.2521 5.12915H84.4728V5.13124C84.4677 5.23225 84.4639 5.32984 84.4603 5.42496C84.4522 5.63604 84.4445 5.8349 84.4231 6.03177C84.3029 7.122 83.8925 8.04547 82.8355 8.50824C82.4293 8.68543 81.9692 8.76881 81.5236 8.82093C81.208 8.85862 80.8864 8.84994 80.5608 8.84115C80.4182 8.8373 80.2748 8.83344 80.1309 8.83344V9.69645H82.7464V10.1009C82.7464 10.9234 82.7462 11.7462 82.746 12.5691C82.7455 14.2155 82.745 15.8625 82.7464 17.5094C82.7464 17.8534 82.7485 18.1994 82.7754 18.5434C82.8894 20.0151 83.6894 21.0365 85.105 21.3284C85.7578 21.4639 86.477 21.4639 87.1381 21.3513C88.8729 21.0574 89.8594 19.5106 90.0003 17.9534C89.4573 17.8305 89.4242 17.8492 89.2749 18.3412C88.9247 19.4877 88.1164 20.0401 86.8915 19.9692C85.9817 19.915 85.4179 19.396 85.2915 18.4871C85.2646 18.2995 85.25 18.1098 85.25 17.9222V10.08V9.68186H89.5962V8.86262H89.1817C88.8801 8.86262 88.5786 8.86223 88.2771 8.86184C87.3731 8.86067 86.4697 8.85949 85.5651 8.86887C85.3184 8.87096 85.2418 8.798 85.2459 8.54785C85.2565 7.87066 85.2549 7.19346 85.2533 6.51627C85.2527 6.27 85.2521 6.02373 85.2521 5.77745V5.12915Z"
            fill="black" />
</svg>
