<svg viewBox="0 0 567 84" version="1.1" xmlns="http://www.w3.org/2000/svg" xmlns:xlink="http://www.w3.org/1999/xlink"> <defs> <polygon id="path-1" points="0 83.44 566.348 83.44 566.348 0 0 0"></polygon> </defs> <g id="brand-assets/CT-logo" stroke="none" stroke-width="1" fill="none" fill-rule="evenodd"> <g id="Page-1"> <path d="M136.7082,40.1499 C135.1872,40.9939 133.6022,41.7159 131.9682,42.3099 C131.3482,42.5499 130.7382,42.7999 130.1682,43.0499 C127.0342,44.4079 124.3062,46.5549 122.2482,49.2799 C120.8172,51.5139 120.5602,54.3029 121.5582,56.7599 C122.6502,59.0839 125.0442,60.5119 127.6082,60.3699 C132.1882,60.3699 135.7082,58.0199 136.9282,54.5999 C136.7882,53.3899 136.7182,51.0399 136.7182,49.5999 C136.7082,47.0299 136.7082,42.7099 136.7082,40.1599 L136.7082,40.1499 Z M126.0082,65.3599 C125.2262,65.3569 124.4452,65.3099 123.6682,65.2199 C119.5582,64.7699 116.1082,64.0499 113.9682,61.3999 C111.7052,58.4769 110.8382,54.7079 111.5982,51.0899 C112.6882,45.5999 117.4482,43.8299 121.4682,42.0299 C123.5882,41.0899 125.8582,40.2699 127.6782,39.6099 L129.9582,38.7699 C131.8512,38.1899 133.6422,37.3189 135.2682,36.1899 C136.1982,35.4499 136.6182,33.3099 136.4382,31.9899 C136.2082,30.3199 134.7182,26.5899 130.7982,26.5999 C124.0482,26.5999 122.4482,32.2899 121.5082,35.5999 L114.0082,32.5999 C116.5582,26.4999 123.1182,22.3099 130.4582,22.3099 C132.9342,22.2889 135.3892,22.7649 137.6782,23.7099 C143.7482,26.3099 146.4282,30.3499 146.1082,37.3699 L146.1082,52.7099 C146.1082,54.9099 146.1082,59.9299 147.8182,61.0799 C148.7492,61.7299 149.9862,61.7299 150.9182,61.0799 L150.9182,62.4809 C150.2032,63.8839 148.7312,64.7369 147.1582,64.6599 C145.7802,64.6429 144.4242,64.3169 143.1882,63.7099 C141.3072,62.8479 139.7152,61.4579 138.6082,59.7099 C135.4792,63.4019 130.8462,65.4799 126.0082,65.3599 Z" id="Fill-1" fill="#311212"></path> <path d="M469.8884,65.3799 C460.1274,65.3799 454.7474,60.7699 454.7474,50.5699 L454.7474,23.0799 L463.8674,23.0799 L463.8674,50.4999 C463.8674,57.8199 468.2784,59.6599 471.5874,59.6599 C475.5874,59.6599 479.2874,58.1699 481.0184,54.2899 L481.0184,23.0799 L490.1884,23.0799 L490.1884,64.5899 L481.0684,64.5899 L481.0684,59.9009 C478.1884,62.8299 474.3584,65.3799 469.8884,65.3799" id="Fill-3" fill="#311212"></path> <path d="M154.8479,64.5996 L154.8479,23.0796 L163.9579,23.0796 L163.9579,28.9596 C167.3579,25.2896 171.3779,22.8096 177.0279,22.8996 L177.0279,31.5896 C175.7029,31.1466 174.3159,30.9136 172.9179,30.8996 C169.0679,30.8996 165.7979,31.2996 163.9679,34.3796 L163.9679,64.6106 L154.8579,64.6106 L154.8479,64.5996 Z" id="Fill-5" fill="#311212"></path> <path d="M97.6882,64.5996 L97.6882,40.8196 C97.6882,34.8196 96.8282,32.6296 95.5282,31.2096 C94.2282,29.7896 92.2682,28.1206 89.8082,28.1206 C84.8082,28.1206 81.0782,29.5496 79.3082,33.9796 L79.3082,64.5996 L70.1882,64.5996 L70.1882,0.8496 L79.2982,0.8496 L79.2982,28.1806 C82.2982,25.0796 86.3982,22.3906 91.1682,22.3906 C95.9382,22.3906 99.9782,22.8496 102.6182,25.5096 C105.6182,28.5096 106.8082,32.7006 106.8082,39.9706 L106.8082,64.5996 L97.6882,64.5996 Z" id="Fill-7" fill="#311212"></path> <mask id="mask-2" fill="white"> <use xlink:href="#path-1"></use> </mask> <g id="Clip-10"></g> <polygon id="Fill-9" fill="#311212" mask="url(#mask-2)" points="181.778 64.59 190.898 64.59 190.898 0.85 181.778 0.85"></polygon> <path d="M216.9983,26.6401 C208.6483,26.6401 204.2783,35.7801 204.2783,43.8201 C204.2783,51.8601 208.6483,61.0701 216.9983,61.0701 C221.8183,61.0701 224.7483,57.3701 226.3583,55.0701 C228.5963,51.7381 229.7693,47.8041 229.7183,43.7901 C229.7183,35.7801 225.3483,26.6501 216.9983,26.6501 L216.9983,26.6401 Z M216.9983,65.3801 C203.8183,65.3801 194.9983,57.3091 194.9983,43.8201 C194.9983,30.3301 203.8483,22.3301 216.9983,22.3301 C230.1483,22.3301 238.9983,30.3301 238.9983,43.8201 C239.0383,57.1101 229.9783,65.3801 216.9983,65.3801 Z" id="Fill-11" fill="#311212" mask="url(#mask-2)"></path> <path d="M280.758,65.3799 C274.008,65.3799 269.978,62.3799 269.978,55.6099 L269.978,27.4399 L262.048,27.4399 C260.388,27.4399 258.648,27.4399 256.518,27.5499 L256.518,54.7309 C256.518,58.6509 257.688,60.0699 260.178,60.0799 C262.594,60.1409 264.976,59.5019 267.038,58.2399 L268.398,59.9699 C265.488,63.6299 262.338,65.3399 258.158,65.3399 C251.418,65.3399 247.398,62.3399 247.398,55.5799 L247.398,27.8899 C243.198,28.0699 240.148,28.2599 239.498,28.3099 L236.498,28.5999 L240.448,23.0599 L247.378,23.0599 L247.378,15.6399 L256.508,7.3999 L256.508,23.0699 L269.968,23.0699 L269.968,15.6399 L279.088,7.3899 L279.088,23.0699 L291.938,23.0699 L294.938,28.1499 L292.568,27.9599 C290.568,27.8399 286.208,27.6499 279.088,27.5799 L279.088,54.7699 C279.088,58.6999 280.268,60.0499 282.768,60.1299 C285.198,60.1999 287.595,59.5609 289.668,58.2899 L291.008,60.0399 C288.108,63.6399 284.948,65.3799 280.758,65.3799" id="Fill-12" fill="#311212" mask="url(#mask-2)"></path> <path d="M324.0876,35.7099 C322.8376,28.3099 317.8986,26.4899 315.0876,26.4899 C309.0876,26.4899 305.7586,30.2599 304.0876,35.7099 L324.0876,35.7099 Z M314.9786,65.3799 C302.1176,65.3799 293.4786,57.0699 293.4786,43.1999 C293.4786,30.5199 302.4786,22.3199 314.8986,22.3199 C325.1486,22.3199 332.5586,28.2299 333.3586,38.4999 L333.5986,40.0799 L302.8586,40.0799 C302.8586,41.6799 302.7976,42.3299 302.7976,43.0799 C302.7976,52.7999 308.1386,59.8299 316.7286,59.8299 C324.0986,59.8299 327.8486,57.0099 330.1976,54.6799 L331.9786,56.3299 C328.0586,62.2199 322.7686,65.3799 314.9786,65.3799 Z" id="Fill-13" fill="#311212" mask="url(#mask-2)"></path> <polygon id="Fill-14" fill="#311212" mask="url(#mask-2)" points="392.568 64.639 401.688 64.639 401.688 0.91 392.568 0.91"></polygon> <path d="M418.988,57.8203 C421.708,59.2653 424.738,60.0303 427.818,60.0493 C436.138,60.0493 441.098,53.3703 441.098,43.8703 C441.098,34.3703 436.158,27.8703 427.888,27.8703 C424.743,27.8573 421.657,28.7233 418.978,30.3703 L418.978,57.8603 L418.988,57.8203 Z M429.808,65.3803 C425.917,65.2593 422.149,63.9823 418.988,61.7103 L418.988,64.5593 L409.868,64.5593 L409.868,0.8603 L418.988,0.8603 L418.988,26.2403 C422.088,24.1403 425.868,22.4903 429.568,22.4903 C441.848,22.4903 450.418,30.6903 450.418,43.8603 C450.428,57.3303 442.188,65.3803 429.808,65.3803 Z" id="Fill-15" fill="#311212" mask="url(#mask-2)"></path> <path d="M495.6784,23.25 L504.7874,23.03 L504.7874,28.96 C507.7874,25.74 511.8674,22.96 516.9384,22.96 L521.5584,33.18 C521.5584,33.18 517.3274,30.93 513.6984,30.93 C509.8184,30.93 506.3774,31.31 504.7974,34.49 L504.7974,64.59 L495.6884,64.8 L495.6884,23.25 L495.6784,23.25 Z" id="Fill-16" fill="#311212" mask="url(#mask-2)"></path> <polygon id="Fill-17" fill="#311212" mask="url(#mask-2)" points="375.438 64.59 383.988 64.59 383.988 26.77 375.438 26.77"></polygon> <polygon id="Fill-18" fill="#311212" mask="url(#mask-2)" points="375.0085 16.4101 379.7075 9.1801 384.4285 16.4301 379.6975 23.6301"></polygon> <path d="M350.5583,64.5996 L350.5583,5.9106 C345.7383,5.9106 338.1583,6.0696 327.2473,6.4996 L322.7973,6.6696 L327.7183,0.9506 L380.6273,0.9506 L381.1883,1.2796 L385.0583,6.7596 L381.0583,6.5096 C378.6673,6.3596 370.0583,5.8906 359.8983,5.8906 L359.6673,5.8906 L359.6673,64.5996 L350.5683,64.5996 L350.5583,64.5996 Z" id="Fill-19" fill="#311212" mask="url(#mask-2)"></path> <path d="M529.0983,83.4199 L530.4283,81.1999 C531.3483,79.6599 536.8983,70.0199 541.2383,61.0199 C540.1583,58.5999 523.7073,23.0199 523.7073,23.0199 L533.7073,23.0199 L545.8083,52.7099 L558.7283,23.0399 L566.3483,23.0399 L565.0583,25.7899 L538.9783,83.4409 L529.0983,83.4409 L529.0983,83.4199 Z" id="Fill-20" fill="#311212" mask="url(#mask-2)"></path> <path d="M35.0779,66.4101 C24.8979,66.4101 15.3179,63.2691 8.7979,56.0591 C-3.7351,42.3231 -2.7611,21.0271 10.9759,8.4931 C11.4449,8.0651 11.9259,7.6511 12.4179,7.2501 C18.8179,1.9301 26.9879,0.0001 35.4179,0.0001 C46.0279,0.0001 55.8979,3.5901 63.0679,12.2401 L55.7379,17.7801 C51.8479,12.1801 46.8579,7.3401 41.8279,5.8401 C39.7209,5.1971 37.5319,4.8601 35.3279,4.8401 C31.3389,4.9011 27.4279,5.9561 23.9479,7.9101 C17.1879,11.7101 12.7979,19.7801 11.2979,28.2501 C9.9379,37.0161 12.4519,45.9421 18.1879,52.7101 C22.5579,57.7691 28.7179,61.2201 35.6279,61.2201 C37.0499,61.2241 38.4699,61.0971 39.8679,60.8401 C47.0179,59.5301 53.2579,53.5801 57.3779,46.2201 L66.2979,49.6391 C60.1079,60.0191 47.7879,66.4101 35.0779,66.4101" id="Fill-21" fill="#311212" mask="url(#mask-2)"></path> </g> </g> </svg>