<?xml version="1.0" encoding="utf-8"?>
<!-- Generator: Adobe Illustrator 22.1.0, SVG Export Plug-In . SVG Version: 6.00 Build 0)  -->
<svg version="1.1" id="Слой_1" xmlns="http://www.w3.org/2000/svg" xmlns:xlink="http://www.w3.org/1999/xlink" x="0px" y="0px"
	 viewBox="0 0 200 25" style="enable-background:new 0 0 200 25;" xml:space="preserve">
<style type="text/css">
	.st0{fill:#BE0F34;}
</style>
<g>
	<path class="st0" d="M29.5,2.5c-2.2-0.8-6-2.1-11.7-2.1C7.4,0.4,0,5.7,0,12.3C0,19.4,6.3,24,17.7,24c5.8,0,9.4-1.4,11.6-2.3
		c0,0,0.1-0.1,0.1-0.1l0-5.5c0-0.1,0-0.1-0.1-0.1l-0.4,0c-0.1,0-0.1,0-0.1,0.1c-1.4,5.1-5.7,7-11,7c-7.3,0-12.4-4.1-12.4-10.8
		c0-6.7,4.4-10.8,12.4-10.8c5.7,0,9.3,2.4,10.7,6.4c0,0.1,0.1,0.1,0.1,0.1H29c0.1,0,0.1-0.1,0.1-0.1l0.5-5.2
		C29.6,2.6,29.6,2.5,29.5,2.5z"/>
	<path class="st0" d="M59.6,16.3L59.6,16.3l-0.2,0l-0.2,0l-0.1,0c0,0-0.1,0-0.1,0.1c-0.5,1-1.1,1.8-1.7,2.6c-0.6,0.8-1.4,1.5-2.2,2
		c-0.9,0.6-1.9,1-3.1,1.3c-1.2,0.3-2.6,0.5-4.3,0.5h-0.9c-1.2,0-2.1-0.1-2.9-0.3c-0.7-0.2-1.3-0.5-1.6-0.9c-0.4-0.4-0.6-0.9-0.7-1.5
		c-0.1-0.6-0.2-1.4-0.2-2.3V6.8c0-0.4,0-0.8,0-1.2c0-0.4,0-0.7,0.1-1c0-0.3,0.1-0.6,0.2-0.9c0.1-0.3,0.2-0.5,0.3-0.7
		c0.1-0.2,0.3-0.4,0.4-0.5c0.2-0.2,0.4-0.3,0.6-0.4c0.2-0.1,0.5-0.2,0.8-0.3c0.3-0.1,0.5-0.1,0.9-0.2c0,0,0.1,0,0.1-0.1V1
		c0-0.1-0.1-0.1-0.1-0.1s-0.5,0-0.8,0c-0.4,0-0.7,0-1.2,0c-0.4,0-0.9,0-1.5,0c-0.5,0-1.1,0-1.8,0c-0.4,0-0.8,0-1.2,0
		c-0.4,0-0.8,0-1.3,0c-0.4,0-0.9,0-1.4,0c-0.5,0-1,0-1.6,0c0,0-0.1,0-0.1,0.1v0.2c0,0,0,0.1,0,0.1v0.2c0,0,0,0.1,0.1,0.1
		c0.3,0,0.6,0.1,0.8,0.2c0.3,0.1,0.5,0.2,0.8,0.3c0.2,0.1,0.4,0.3,0.6,0.4c0.2,0.2,0.3,0.3,0.4,0.5c0.1,0.2,0.2,0.5,0.3,0.7
		C37,4,37,4.3,37.1,4.6c0,0.3,0.1,0.6,0.1,1c0,0.4,0,0.7,0,1.2v10.9c0,0.4,0,0.8,0,1.2c0,0.4,0,0.7-0.1,1c0,0.3-0.1,0.6-0.2,0.9
		c-0.1,0.3-0.2,0.5-0.3,0.7c-0.1,0.2-0.3,0.4-0.4,0.5c-0.2,0.2-0.4,0.3-0.6,0.4c-0.2,0.1-0.5,0.2-0.8,0.3c-0.3,0.1-0.9,0.2-0.9,0.2
		s-0.1,0-0.1,0.1v0.4c0,0.1,0.1,0.1,0.1,0.1c0.5,0,1,0,1.5,0c0.5,0,1,0,1.4,0c0.5,0,0.9,0,1.3,0c0.4,0,0.8,0,1.2,0h12.3
		c0.7,0,1.4,0,2.1,0c0.7,0,1.3,0,1.8,0c0.5,0,1,0,1.3,0c0.2,0,0.3,0,0.4,0c0.1,0,0.1-0.1,0.1-0.1l1.7-5.4l0.5-1.7
		C59.7,16.5,59.7,16.3,59.6,16.3z"/>
	<path class="st0" d="M90.7,22.9c-2.4-0.3-4-2.4-5.6-5.3L78.2,5.9c-1.6-2.7-3.4-5.8-3.4-5.8s0,0,0,0c0,0,0,0-0.1,0c0,0-0.1,0-0.2,0
		c-0.1,0-0.1,0-0.1,0.1c-0.7,1.2-1.5,2.6-3.7,6.2l-6.1,9.9c-2.8,4.6-4.6,6.4-5.7,6.7c-0.1,0-0.1,0.1-0.1,0.1v0.5
		c0,0.1,0.1,0.1,0.1,0.1c0.8,0,1.8-0.1,3.6-0.1c1.8,0,4.4,0.1,4.4,0.1s0.1,0,0.1-0.1c0-0.2,0-0.4,0-0.5c0-0.1,0-0.1-0.1-0.1
		c-1.9-0.5-2.6-1.4-2.6-2.7c0-1.2,0.7-2.7,1.7-4.4l0.8-1.3c0,0,0.1-0.1,0.1-0.1h11.3c0.1,0,0.1,0,0.2,0.1l1.5,2.5
		c1,1.7,1.8,2.9,1.8,4c0,1-0.8,1.6-2.8,1.9c-0.1,0-0.1,0.1-0.1,0.1v0.5c0,0.1,0.1,0.1,0.1,0.1c2.1,0,4-0.1,5.9-0.1
		c1.8,0,5.9,0.1,5.9,0.1s0.1,0,0.1-0.1v-0.4C90.8,23.1,90.8,23,90.7,22.9z M77.5,13.4h-9.9c-0.1,0-0.2-0.1-0.1-0.2l1.2-1.9
		c2.2-3.7,3.1-5.1,3.8-6.3C72.6,5,72.7,5,72.7,5c0.6,1,1.7,2.8,3.8,6.3l1.1,1.9C77.7,13.2,77.6,13.4,77.5,13.4z"/>
	<path class="st0" d="M196.3,12.2c-2.1-1-4.8-1.5-7.7-2l-2.3-0.4c-4.9-0.8-7-1.9-7-4.5c0-2.4,2.7-3.9,8-3.9c5.7,0,8.3,2.6,9.2,5.9
		c0,0.1,0.1,0.1,0.1,0.1h0.5c0.1,0,0.1-0.1,0.1-0.1l0.5-5.2c0,0,0,0,0,0c-2.9-0.9-6-1.6-10.3-1.6c-6.9,0-12.1,2.1-12.1,6.4
		c0,4.4,4.2,5.7,9.8,6.7l2.2,0.4c5,0.9,8.9,1.5,8.9,4.8c0,3-4.1,4.3-9.3,4.3c-4.9,0-9.5-2-11-7c0-0.1-0.1-0.1-0.1-0.1h-0.4
		c-0.1,0-0.1,0-0.1,0.1l-0.5,5.7c0,0,0,0.1,0,0.1c1.6,0.7,6,2.2,12.2,2.2c8.2,0,13.3-2.2,13.3-6.9C200,14.8,198.5,13.3,196.3,12.2z"
		/>
	<path class="st0" d="M172,0.8c-1.5,0-3.1,0.1-4.5,0.1c-1.5,0-2.9,0-4.7-0.1c-0.1,0-0.1,0-0.1,0.1v0.5c0,0.1,0,0.1,0.1,0.1
		c2,0.2,3,0.9,3.5,1.8c0.8,1.3,0.8,3.2,0.8,5.9V12c0,2.8,0,4.8,0,5.4c0,0.1-0.1,0.1-0.2,0.1c-0.4-0.4-1.7-1.6-4.5-4l-8.3-7.2
		c-3.3-2.8-5.6-4.9-6.1-5.4c0,0-0.1,0-0.1,0c-1.1,0-2.7,0-3.6,0c-1.4,0-1.8,0-4-0.1c-0.1,0-0.1,0.1-0.1,0.1v0.5
		c0,0.1,0.1,0.1,0.1,0.1c1.2,0.2,2.6,0.6,3.8,1.8c0,0,0,0.1,0,0.1v11.6c0,2.7,0,4.6-0.8,5.9c-0.6,0.9-1.6,1.6-3.2,1.9
		c-0.1,0-0.1,0.1-0.1,0.1v0.5c0,0.1,0.1,0.1,0.1,0.1c1.5,0,2.7-0.1,4-0.1c1.5,0,3.3,0,5.1,0.1c0,0,0.1,0,0.1-0.1V23
		c0-0.1,0-0.1-0.1-0.1c-1.6-0.3-2.7-1-3.3-1.9c-0.8-1.3-0.8-3.2-0.8-5.9v-2.8c0-3.9-0.1-7.1-0.1-7.9c0-0.1,0.1-0.1,0.2-0.1
		c0,0,3.2,2.9,7,6.1l7.7,6.7c2.1,1.8,7.9,6.9,7.9,6.9s0,0,0.1,0.1c0.1,0,0.2,0,0.2-0.1c0-0.1,0-6.1,0-8.6V9.3c0-2.7,0-4.6,0.8-5.9
		c0.6-0.9,1.4-1.5,3-1.8c0.1,0,0.1-0.1,0.1-0.1V1C172.1,0.9,172.1,0.8,172,0.8z"/>
	<path class="st0" d="M121.9,23c-2.4-0.6-3.2-2.3-4.1-4.3l-0.2-0.6c-1.5-3.7-2.8-5.5-7.1-5.7c-0.1,0-0.1-0.2,0-0.2
		c4.4-0.3,8.1-2.1,8.1-6c0-4.7-5.5-5.3-11.6-5.3c-1.2,0-2.4,0-3.6,0H98c-1.5,0-4.1,0-6-0.1c-0.1,0-0.1,0.1-0.1,0.1v0.5
		c0,0.1,0,0.1,0.1,0.1c1.4,0.2,2.2,0.7,2.6,1.4c0.6,0.9,0.6,2.1,0.6,3.8v10.9c0,1.7-0.1,2.9-0.6,3.8c-0.5,0.8-1.2,1.2-2.6,1.4
		c-0.1,0-0.1,0.1-0.1,0.1v0.5c0,0.1,0.1,0.1,0.1,0.1c2.2-0.1,3.9-0.1,5.5-0.1c1.7,0,5.3,0.1,5.3,0.1s0.1,0,0.1-0.1v-0.4
		c0-0.1,0-0.1-0.1-0.1c-1.4-0.2-2.2-0.7-2.6-1.4c-0.6-0.9-0.6-2.1-0.6-3.8v-4.9c0-0.1,0.1-0.2,0.1-0.2c0.9,0,3.5,0,4.4,0
		c5.6,0,7.6,2.4,8.8,5.7c1,2.4,2.2,5.3,3,5.3h1.7c1.8,0,2.7,0,4.2,0c0.1,0,0.1-0.1,0.1-0.1v-0.4C121.9,23,121.9,23,121.9,23z
		 M99.7,11.6c-0.1,0-0.1,0-0.1-0.1V2c0-0.1,0-0.1,0.1-0.1c1.3,0,5.4-0.1,6.3-0.1c3.8,0,7.7,0.4,7.7,4.4c0,5.3-4.7,5.4-8.8,5.4H99.7z
		"/>
	<path class="st0" d="M135.8,23.5v-0.4c0,0,0,0,0,0c0-0.1-0.1-0.1-0.1-0.1c-1.4-0.2-2.1-0.7-2.6-1.4c-0.6-0.9-0.6-2.1-0.6-3.8V6.8
		c0-1.7,0.1-2.9,0.6-3.8c0.5-0.8,1.3-1.2,2.6-1.4c0,0,0.1-0.1,0.1-0.1V1c0-0.1-0.1-0.1-0.1-0.1c-2,0.1-3.6,0.1-5.3,0.1
		c-1.6,0-3.3,0-5.5-0.1c-0.1,0-0.1,0.1-0.1,0.1v0.4c0,0.1,0,0.1,0.1,0.1c1.4,0.2,2.1,0.7,2.6,1.4c0.6,0.9,0.6,2.1,0.6,3.8v10.9
		c0,1.7-0.1,2.9-0.6,3.8c-0.5,0.8-1.3,1.3-2.7,1.4v0.7c2.2-0.1,4-0.1,5.6-0.1c1.7,0,3.3,0,5.3,0.1C135.7,23.6,135.8,23.6,135.8,23.5
		z"/>
</g>
</svg>
