<?xml version="1.0" encoding="UTF-8" ?>
<!DOCTYPE svg PUBLIC "-//W3C//DTD SVG 1.1//EN" "http://www.w3.org/Graphics/SVG/1.1/DTD/svg11.dtd">
<svg width="439.5pt" height="128.25pt" viewBox="0 0 1500 437" version="1.1" xmlns="http://www.w3.org/2000/svg">
<g id="#93c2b8ff">
</g>
<g id="#747474ff">
<path fill="#747474" opacity="1.00" d=" M 599.53 10.58 C 611.86 6.57 625.05 5.12 637.96 6.46 C 652.77 7.22 667.82 11.04 680.08 19.67 C 691.88 27.64 699.56 40.52 703.28 54.07 C 704.44 58.79 705.36 63.63 705.02 68.51 C 692.37 68.67 679.70 68.73 667.05 68.48 C 666.72 60.18 663.34 51.46 656.45 46.45 C 651.27 42.12 644.53 40.50 638.07 39.20 C 628.18 38.73 617.61 37.98 608.61 42.95 C 602.23 46.17 596.96 52.63 596.64 59.97 C 595.92 66.20 598.81 72.60 603.52 76.63 C 611.62 82.42 621.53 84.70 631.12 86.73 C 647.91 90.03 665.15 92.70 680.68 100.29 C 688.43 104.60 695.95 109.80 701.37 116.93 C 707.97 126.56 712.24 138.37 710.70 150.16 C 709.67 164.24 704.56 178.44 694.57 188.67 C 682.31 202.43 663.97 209.18 646.00 211.08 C 641.64 211.14 637.31 211.74 632.96 211.94 C 621.82 211.53 610.63 209.99 600.17 206.00 C 585.90 201.53 573.12 192.65 563.71 181.08 C 556.39 170.75 551.46 158.25 551.73 145.46 C 564.59 145.26 577.47 145.31 590.33 145.45 C 591.82 155.85 598.17 165.63 607.50 170.64 C 622.64 179.42 642.54 181.49 658.27 173.11 C 670.70 167.07 675.31 149.13 666.88 138.08 C 663.27 134.14 658.40 131.57 653.53 129.52 C 641.67 124.95 629.21 122.26 616.80 119.67 C 608.62 118.21 600.48 116.35 592.68 113.43 C 581.43 108.59 570.88 101.11 564.65 90.33 C 553.26 71.17 556.78 45.03 572.01 28.95 C 578.89 19.99 589.25 14.69 599.53 10.58 Z" />
<path fill="#747474" opacity="1.00" d=" M 1402.91 6.61 C 1412.27 5.22 1421.74 6.33 1431.09 7.23 C 1441.18 8.77 1451.29 11.48 1460.11 16.76 C 1478.31 27.06 1489.63 47.80 1489.63 68.57 C 1477.04 68.64 1464.45 68.67 1451.87 68.55 C 1451.03 61.32 1448.86 53.78 1443.55 48.54 C 1435.52 40.83 1423.83 38.52 1413.05 38.92 C 1405.19 38.53 1397.11 40.21 1390.46 44.52 C 1386.51 47.67 1382.86 51.70 1381.63 56.72 C 1379.26 65.08 1383.64 74.68 1391.28 78.69 C 1401.55 84.54 1413.43 86.24 1424.87 88.47 C 1442.84 92.14 1461.91 95.74 1476.53 107.63 C 1484.65 113.22 1489.92 122.02 1493.17 131.15 C 1496.81 142.68 1495.68 155.39 1492.03 166.78 C 1487.22 182.51 1475.10 195.38 1460.55 202.69 C 1446.50 209.82 1430.54 211.75 1414.99 211.86 C 1394.78 210.78 1374.07 204.75 1358.45 191.43 C 1344.47 180.62 1336.76 163.06 1335.89 145.63 C 1341.89 145.03 1347.94 145.50 1353.97 145.35 C 1360.95 145.49 1367.95 145.08 1374.93 145.58 C 1376.37 155.97 1382.85 165.68 1392.15 170.66 C 1407.16 179.40 1426.78 181.43 1442.48 173.34 C 1453.22 167.94 1458.88 153.93 1454.10 142.77 C 1451.55 136.06 1444.78 132.36 1438.53 129.70 C 1426.14 124.84 1413.06 122.10 1400.06 119.42 C 1391.98 117.89 1383.88 116.11 1376.25 113.01 C 1367.93 109.13 1359.81 104.18 1354.00 96.93 C 1338.83 79.60 1339.04 51.84 1352.69 33.69 C 1356.88 28.23 1361.47 22.88 1367.31 19.11 C 1377.88 12.02 1390.21 7.64 1402.91 6.61 Z" />
<path fill="#747474" opacity="1.00" d=" M 5.96 10.32 C 17.98 10.18 30.00 10.35 42.02 10.24 C 43.69 10.19 45.34 10.41 46.99 10.66 C 47.04 37.41 46.96 64.16 47.04 90.90 C 69.67 91.06 92.31 91.04 114.94 90.92 C 115.04 64.13 114.98 37.34 114.98 10.55 C 128.63 9.95 142.34 10.37 156.00 10.32 C 156.02 75.96 155.95 141.60 156.03 207.23 C 142.36 207.22 128.69 207.32 115.02 207.17 C 114.79 180.24 115.32 153.28 114.76 126.36 C 92.22 126.54 69.68 126.51 47.15 126.37 C 46.77 153.30 47.19 180.25 46.94 207.18 C 33.28 207.36 19.62 207.16 5.95 207.28 C 5.99 141.62 5.99 75.97 5.96 10.32 Z" />
<path fill="#747474" opacity="1.00" d=" M 248.15 14.26 C 248.61 12.88 249.22 11.56 249.90 10.28 C 262.95 10.31 276.00 10.24 289.06 10.31 C 291.48 10.10 291.41 13.21 292.21 14.77 C 315.20 78.90 338.32 142.99 361.28 207.13 C 347.80 207.40 334.30 207.17 320.82 207.26 C 316.06 193.69 311.90 179.87 306.65 166.49 C 282.23 166.63 257.80 166.56 233.38 166.52 C 228.48 179.90 223.99 193.46 219.60 207.02 C 206.06 207.50 192.48 207.20 178.92 207.18 C 201.85 142.82 225.14 78.59 248.15 14.26 M 268.91 60.53 C 260.85 83.94 253.35 107.54 245.09 130.88 C 261.73 131.10 278.37 130.99 295.01 130.94 C 287.16 107.98 279.58 84.92 271.70 61.96 C 271.00 60.18 271.16 58.22 270.67 56.39 C 269.05 56.43 269.60 59.38 268.91 60.53 Z" />
<path fill="#747474" opacity="1.00" d=" M 372.98 10.66 C 386.64 10.68 400.31 10.43 413.97 10.81 C 414.09 55.21 414.00 99.62 414.02 144.02 C 414.76 153.36 417.22 163.09 423.85 170.06 C 428.95 174.34 435.31 177.22 441.95 177.92 C 446.53 178.02 451.09 178.85 455.66 178.10 C 463.94 178.14 472.23 174.88 478.19 169.13 C 486.77 159.22 487.49 145.45 487.31 132.97 C 487.41 92.20 487.08 51.41 487.48 10.65 C 501.04 10.62 514.60 10.58 528.17 10.67 C 528.39 41.11 528.21 71.56 528.26 102.00 C 528.17 117.23 528.49 132.47 528.01 147.70 C 526.86 157.79 524.61 167.90 520.25 177.12 C 515.12 186.59 507.89 195.15 498.53 200.67 C 484.03 209.58 466.65 211.80 449.95 212.04 C 437.01 211.60 423.82 210.40 411.79 205.25 C 397.77 199.75 386.28 188.53 379.93 174.94 C 375.98 165.74 374.03 155.80 372.99 145.89 C 372.98 100.81 373.01 55.74 372.98 10.66 Z" />
<path fill="#747474" opacity="1.00" d=" M 812.97 10.40 C 826.65 10.26 840.38 10.03 854.05 10.52 C 853.99 64.33 854.05 118.14 854.02 171.95 C 885.13 171.98 916.24 172.06 947.35 171.93 C 947.36 183.71 947.38 195.48 947.34 207.25 C 902.54 207.21 857.75 207.29 812.96 207.22 C 813.02 141.61 813.01 76.00 812.97 10.40 Z" />
<path fill="#747474" opacity="1.00" d=" M 1032.42 13.56 C 1032.99 12.36 1033.13 10.03 1035.02 10.34 C 1046.02 10.18 1057.02 10.35 1068.03 10.27 C 1070.30 10.23 1072.61 10.17 1074.87 10.70 C 1098.13 76.26 1121.97 141.64 1145.29 207.18 C 1131.82 207.33 1118.36 207.20 1104.90 207.26 C 1100.24 193.76 1095.65 180.23 1091.07 166.71 C 1066.54 166.34 1041.99 166.71 1017.45 166.52 C 1012.49 179.88 1008.00 193.45 1003.64 207.02 C 990.08 207.51 976.48 207.17 962.91 207.19 C 986.00 142.62 1009.30 78.12 1032.42 13.56 M 1029.17 130.87 C 1045.78 131.16 1062.40 130.89 1079.02 131.00 C 1070.74 106.37 1062.41 81.76 1054.20 57.11 C 1045.61 81.61 1037.70 106.35 1029.17 130.87 Z" />
<path fill="#747474" opacity="1.00" d=" M 1163.58 10.40 C 1190.72 10.09 1217.87 10.36 1245.02 10.27 C 1258.83 10.27 1273.04 11.39 1285.78 17.14 C 1292.60 21.05 1299.64 25.54 1303.63 32.55 C 1305.85 36.62 1307.76 40.90 1308.94 45.40 C 1310.86 51.75 1309.86 58.45 1310.06 64.97 C 1309.19 73.45 1306.48 82.16 1300.48 88.45 C 1296.05 93.62 1290.17 97.26 1284.11 100.23 C 1292.63 102.94 1300.88 107.30 1306.73 114.22 C 1313.93 122.11 1317.63 132.64 1318.95 143.10 C 1319.14 149.90 1319.59 156.84 1317.84 163.48 C 1315.59 174.51 1309.49 184.61 1301.13 192.09 C 1288.24 203.24 1270.69 207.41 1253.97 207.17 C 1223.84 207.33 1193.70 207.22 1163.56 207.23 C 1163.52 141.62 1163.49 76.01 1163.58 10.40 M 1204.57 43.20 C 1204.79 59.28 1204.54 75.37 1204.68 91.45 C 1216.78 91.64 1228.89 91.46 1241.00 91.55 C 1247.43 91.13 1254.35 91.45 1260.00 87.79 C 1267.87 83.65 1271.34 74.40 1271.73 65.94 C 1271.53 60.05 1269.86 53.62 1265.11 49.74 C 1259.44 44.54 1251.37 43.64 1244.05 43.01 C 1230.89 43.12 1217.72 42.77 1204.57 43.20 M 1204.59 127.97 C 1204.73 143.29 1204.49 158.62 1204.74 173.94 C 1221.50 174.03 1238.27 174.06 1255.04 173.92 C 1262.63 172.88 1271.02 170.30 1275.30 163.42 C 1279.59 157.09 1279.35 149.13 1278.80 141.84 C 1277.75 137.41 1276.30 132.58 1272.47 129.75 C 1266.60 124.72 1258.40 123.77 1250.97 124.04 C 1235.91 124.03 1220.85 123.92 1205.80 124.08 C 1203.75 123.91 1204.88 126.80 1204.59 127.97 Z" />
<path fill="#747474" opacity="1.00" d=" M 956.57 281.44 C 963.48 279.01 970.82 278.80 978.04 278.22 C 988.77 278.25 999.68 279.77 1009.48 284.36 C 1026.82 291.35 1039.74 308.38 1041.47 327.03 C 1031.32 327.00 1021.16 327.01 1011.01 327.02 C 1008.75 319.61 1004.08 312.79 997.16 309.06 C 985.45 303.25 970.49 303.26 959.48 310.67 C 953.44 315.40 948.50 321.76 946.23 329.15 C 939.89 346.42 940.32 365.99 947.06 383.07 C 949.36 389.46 953.95 394.68 958.96 399.12 C 967.07 405.27 977.80 406.04 987.54 404.56 C 996.07 402.52 1003.88 396.69 1007.42 388.55 C 1009.59 383.90 1011.13 378.89 1011.26 373.72 C 1001.15 373.39 991.01 374.00 980.93 373.39 C 981.07 364.60 980.93 355.80 981.02 347.01 C 1001.86 346.94 1022.71 347.03 1043.56 346.96 C 1043.78 374.42 1043.70 401.88 1043.59 429.33 C 1035.38 429.30 1027.17 429.30 1018.97 429.33 C 1018.93 424.61 1019.11 419.89 1018.82 415.18 C 1010.15 425.82 996.67 432.20 982.98 432.50 C 960.92 433.83 936.99 425.65 923.74 407.21 C 912.74 392.62 909.62 373.82 909.27 355.97 C 909.60 341.31 912.28 326.39 919.29 313.37 C 926.80 298.37 940.25 286.00 956.57 281.44 Z" />
<path fill="#747474" opacity="1.00" d=" M 1229.95 292.05 C 1244.01 280.48 1263.16 276.96 1280.91 278.76 C 1290.68 279.24 1300.14 282.50 1308.76 287.01 C 1323.06 295.31 1333.68 310.37 1335.19 327.00 C 1324.92 326.97 1314.65 327.14 1304.39 326.91 C 1302.51 319.25 1297.40 312.36 1290.29 308.83 C 1280.77 304.24 1269.33 303.55 1259.44 307.34 C 1252.36 310.00 1247.06 315.89 1242.99 322.05 C 1234.12 339.74 1232.99 360.98 1239.50 379.63 C 1241.71 387.39 1246.71 394.13 1252.87 399.23 C 1261.02 405.43 1271.83 406.02 1281.59 404.47 C 1290.08 402.34 1297.89 396.49 1301.24 388.26 C 1303.14 383.62 1305.29 378.66 1304.77 373.56 C 1294.83 373.63 1284.88 373.81 1274.95 373.50 C 1275.04 364.67 1275.02 355.83 1274.93 347.00 C 1295.68 346.92 1316.43 347.07 1337.18 346.93 C 1337.12 374.41 1337.09 401.90 1337.18 429.38 C 1329.03 429.12 1320.87 429.50 1312.73 429.27 C 1312.68 424.58 1312.69 419.90 1312.73 415.22 C 1306.75 421.81 1299.38 427.26 1290.86 430.05 C 1282.23 432.77 1272.97 433.24 1264.03 432.16 C 1245.88 430.50 1227.70 421.93 1217.11 406.72 C 1210.85 398.30 1207.10 388.23 1205.14 377.99 C 1201.39 359.47 1202.40 339.90 1209.01 322.14 C 1213.49 310.68 1220.21 299.77 1229.95 292.05 Z" />
<path fill="#747474" opacity="1.00" d=" M 5.99 281.46 C 26.64 281.35 47.29 281.46 67.95 281.40 C 78.87 281.66 90.48 281.86 100.10 287.75 C 107.79 291.42 112.58 299.04 115.26 306.85 C 118.02 316.13 117.18 326.33 113.44 335.22 C 110.83 341.32 105.12 345.12 99.85 348.73 C 104.89 351.30 110.25 353.80 113.77 358.42 C 122.81 368.50 124.78 383.14 122.31 396.05 C 120.68 404.22 116.10 411.47 110.31 417.34 C 100.82 425.39 88.27 429.22 75.93 429.16 C 52.60 429.47 29.27 429.18 5.94 429.31 C 6.03 380.02 5.94 330.74 5.99 281.46 M 39.05 308.07 C 39.00 319.04 38.98 330.01 39.04 340.99 C 47.03 341.19 55.02 341.03 63.01 341.09 C 67.31 340.93 71.87 341.56 75.86 339.56 C 85.07 335.89 88.05 322.97 82.97 314.94 C 79.02 309.15 71.39 308.72 65.05 308.17 C 56.39 307.96 47.72 308.16 39.05 308.07 M 38.90 401.70 C 46.56 402.33 54.26 401.83 61.94 402.00 C 69.32 401.81 77.30 403.07 83.95 399.04 C 87.80 397.10 89.67 392.89 90.79 388.96 C 91.37 383.39 91.35 377.00 87.50 372.51 C 83.42 368.64 77.40 367.79 72.00 368.00 C 61.04 368.18 50.03 367.69 39.10 368.23 C 38.84 379.36 39.23 390.55 38.90 401.70 Z" />
<path fill="#747474" opacity="1.00" d=" M 129.66 281.67 C 140.75 281.59 151.86 281.30 162.93 281.83 C 173.47 301.05 184.01 320.29 194.85 339.34 C 205.92 320.38 216.01 300.80 227.08 281.83 C 237.89 281.08 248.90 281.77 259.79 281.49 C 259.39 284.07 257.72 286.17 256.58 288.46 C 241.70 315.96 226.97 343.54 212.10 371.04 C 210.68 373.46 211.44 376.36 211.30 379.01 C 211.22 395.80 211.35 412.60 211.16 429.39 C 200.26 429.24 189.36 429.27 178.46 429.38 C 178.26 410.93 178.45 392.46 178.36 374.00 C 178.37 373.00 178.13 372.06 177.65 371.19 C 161.73 341.32 145.43 311.63 129.66 281.67 Z" />
<path fill="#747474" opacity="1.00" d=" M 332.96 281.47 C 343.96 281.52 355.01 281.10 365.99 281.68 C 366.09 315.45 365.98 349.22 366.01 382.99 C 366.13 388.84 365.71 394.70 366.22 400.54 C 389.12 400.64 412.05 400.21 434.93 400.75 C 434.93 410.24 434.90 419.72 434.92 429.21 C 400.94 429.42 366.95 429.17 332.96 429.34 C 332.98 380.05 332.99 330.76 332.96 281.47 Z" />
<path fill="#747474" opacity="1.00" d=" M 501.19 281.71 C 506.44 281.08 511.73 281.56 517.00 281.41 C 522.64 281.56 528.30 281.09 533.92 281.63 C 548.07 321.83 562.71 361.87 577.03 402.01 C 580.14 411.13 583.91 420.04 586.51 429.32 C 575.69 429.21 564.87 429.38 554.06 429.22 C 550.45 419.27 547.23 409.19 543.76 399.19 C 526.31 399.24 508.86 399.05 491.41 399.28 C 488.05 409.30 484.55 419.28 481.23 429.31 C 470.36 429.23 459.48 429.37 448.61 429.25 C 454.00 412.76 460.30 396.56 466.02 380.18 C 477.67 347.33 489.84 314.65 501.19 281.71 M 517.48 321.21 C 512.51 337.79 506.42 354.02 501.20 370.52 C 512.09 370.45 522.98 370.42 533.87 370.52 C 528.74 353.98 522.94 337.64 517.48 321.21 Z" />
<path fill="#747474" opacity="1.00" d=" M 601.90 281.63 C 619.91 281.53 637.93 281.48 655.94 281.66 C 670.90 281.48 686.15 286.58 697.11 296.95 C 714.95 313.87 721.76 340.01 719.15 363.96 C 717.93 381.12 712.48 398.62 700.87 411.66 C 690.94 422.45 676.43 428.20 661.96 429.07 C 641.95 429.59 621.93 429.12 601.92 429.35 C 602.03 380.11 602.07 330.87 601.90 281.63 M 635.10 308.16 C 634.92 339.46 634.98 370.76 635.07 402.06 C 641.74 402.29 648.41 402.15 655.09 402.00 C 660.11 402.35 664.86 400.29 669.39 398.38 C 674.38 395.27 678.31 390.54 681.22 385.48 C 687.05 372.49 687.93 357.91 686.74 343.89 C 685.84 337.60 683.89 331.49 681.28 325.70 C 678.62 320.37 674.20 316.02 669.26 312.77 C 658.90 306.80 646.53 308.48 635.10 308.16 Z" />
<path fill="#747474" opacity="1.00" d=" M 721.53 281.71 C 732.60 281.58 743.72 281.23 754.76 281.90 C 765.16 301.29 776.11 320.39 786.58 339.75 C 797.36 320.34 808.00 300.86 818.93 281.54 C 829.85 281.55 840.78 281.40 851.71 281.63 C 847.58 290.54 842.47 298.98 837.98 307.73 C 827.30 327.43 816.72 347.18 806.07 366.90 C 804.80 369.47 802.67 371.90 802.99 374.96 C 803.05 393.07 802.95 411.19 803.05 429.31 C 792.04 429.30 781.02 429.31 770.00 429.32 C 769.89 410.26 770.17 391.18 769.85 372.14 C 753.94 341.90 737.20 312.07 721.53 281.71 Z" />
<path fill="#747474" opacity="1.00" d=" M 1111.95 281.43 C 1122.63 281.45 1133.32 281.29 1144.00 281.52 C 1159.13 323.30 1174.07 365.14 1189.11 406.95 C 1191.55 414.45 1194.89 421.71 1196.75 429.38 C 1185.88 429.10 1175.01 429.52 1164.15 429.15 C 1161.29 419.99 1157.96 410.99 1155.00 401.86 C 1154.48 400.95 1154.44 398.97 1152.96 399.23 C 1135.84 399.25 1118.70 398.95 1101.59 399.39 C 1098.49 409.34 1094.74 419.08 1091.69 429.05 C 1080.72 429.62 1069.69 429.11 1058.69 429.30 C 1074.72 384.49 1090.86 339.72 1106.95 294.92 C 1108.64 290.43 1110.03 285.83 1111.95 281.43 M 1111.54 370.43 C 1122.33 370.57 1133.13 370.33 1143.92 370.56 C 1143.34 365.56 1140.85 361.00 1139.54 356.16 C 1135.57 344.58 1131.89 332.91 1127.75 321.39 C 1122.75 337.86 1116.74 354.02 1111.54 370.43 Z" />
<path fill="#747474" opacity="1.00" d=" M 1404.42 284.85 C 1405.03 283.67 1405.06 281.22 1406.96 281.46 C 1417.28 281.44 1427.63 281.24 1437.96 281.61 C 1453.33 324.42 1468.75 367.23 1484.09 410.06 C 1486.25 416.50 1489.07 422.74 1490.72 429.34 C 1479.85 429.16 1468.98 429.37 1458.12 429.21 C 1454.68 419.18 1451.50 409.04 1447.77 399.12 C 1430.35 399.26 1412.93 398.94 1395.52 399.28 C 1392.37 409.23 1388.65 419.00 1385.67 429.01 C 1374.71 429.57 1363.67 429.20 1352.69 429.22 C 1369.66 381.01 1387.29 333.01 1404.42 284.85 M 1421.60 321.85 C 1416.33 338.12 1410.68 354.26 1405.36 370.51 C 1416.23 370.46 1427.09 370.36 1437.96 370.52 C 1436.83 365.09 1434.49 360.00 1432.93 354.69 C 1429.07 343.77 1425.90 332.59 1421.60 321.85 Z" />
</g>
</svg>
