<?xml version="1.0" encoding="UTF-8" standalone="no"?>
<!-- Created with Inkscape (http://www.inkscape.org/) by Marsupilami -->
<svg
   xmlns:svg="http://www.w3.org/2000/svg"
   xmlns="http://www.w3.org/2000/svg"
   version="1.0"
   width="1024"
   height="242"
   viewBox="0 0 156.78157 37.101406"
   id="svg2310">
  <defs
     id="defs2312" />
  <g
     transform="translate(-27.323504,29.045663)"
     id="layer1">
    <path
       d="M 98.1875,0 L 89.25,4.3125 L 98.1875,1.65625 L 107.15625,4.3125 L 98.1875,0 z M 98.25,4.96875 C 91.270001,4.9687502 86.75,10.41 86.75,16.1875 C 86.750003,21.965781 91.20812,27.125 98.1875,27.125 C 105.17406,27.125 109.75,21.965781 109.75,16.1875 C 109.75,10.41 105.23609,4.96875 98.25,4.96875 z M 76.46875,5.0625 C 70.897962,5.0751684 65.443259,9.4239748 65.09375,16.4375 C 65.09375,16.4375 64.878589,27.093749 76.90625,27.09375 C 82.26266,27.09375 84.941569,22.521718 84.71875,22.59375 C 84.26516,22.748125 82.01266,26.17125 76.96875,26.25 C 75.12235,26.284844 68.999528,24.763593 68.875,16.1875 C 68.798593,11.061093 72.37125,5.8125002 77.0625,5.8125 C 82.7925,5.8125 84.108747,11.40625 84.53125,11.40625 L 84.46875,5.5625 C 84.36688,5.618593 84.068133,6.4754691 83.65625,6.625 C 83.06782,6.841719 81.579999,6.0440631 81.03125,5.875 C 79.86484,5.507657 79.1836,5.289063 77.59375,5.125 C 77.22292,5.0867383 76.840136,5.0616554 76.46875,5.0625 z M 29.53125,5.21875 C 29.326744,5.2763978 29.21875,5.5625 29.21875,5.5625 C 28.412344,7.3807809 20.96875,24.90625 20.96875,24.90625 C 19.951405,27.246407 18.625,26.966875 18.625,27.125 L 23.90625,27.125 C 23.90625,26.866876 21.055938,27.308438 22.03125,24.875 L 24.875,18.125 C 25.168594,17.701407 25.178594,17.5625 25.875,17.5625 C 27.045155,17.562501 30.614218,17.5625 31.15625,17.5625 C 31.803125,17.562499 31.814844,17.5625 32.09375,18.1875 L 34.75,24.5625 C 35.528283,27.119219 33.153282,26.966875 33.1875,27.125 L 40.6875,27.125 C 40.75531,26.901563 39.546719,27.6325 38.1875,24.375 L 30.03125,5.46875 C 29.808535,5.225 29.653954,5.1841613 29.53125,5.21875 z M 57.9375,5.28125 C 57.972344,5.433907 60.231408,5.2434373 60.3125,8.125 L 60.34375,20.03125 L 48.21875,5.34375 L 42.375,5.34375 C 42.438438,5.561563 44.950154,5.5901571 44.90625,8.40625 L 44.90625,24.71875 C 44.945313,27.128906 42.610781,26.867344 42.59375,27.125 L 48.4375,27.125 C 48.435781,26.867344 46.375,27.55125 46.0625,24.875 L 46.0625,24.625 L 46.0625,9.25 C 46.072812,8.818437 46.148906,8.6667185 46.28125,8.8125 C 46.28125,8.8125 60.461563,26.394687 60.84375,26.875 C 61.718281,27.980937 61.499998,26.5625 61.5,26.5625 L 61.53125,8.125 C 61.652656,5.4925 64.038749,5.422813 64.0625,5.28125 L 57.9375,5.28125 z M 111.84375,5.375 C 111.84375,5.634375 114.05562,5.4907812 114.1875,8.59375 L 112.4375,24.59375 C 112.02485,27.254219 110.15047,27.002344 110.21875,27.125 L 115.59375,27.125 C 115.62375,26.9675 113.16938,27.153594 113.53125,24.625 L 115.09375,10.125 C 115.07734,9.053125 115.2825,9.0882808 115.4375,9.40625 C 115.52297,9.585156 116.04829,10.611563 116.34375,11.25 C 116.34375,11.25 122.285,24.016875 122.4375,24.28125 C 122.65046,24.6475 122.81172,24.502657 122.90625,24.25 C 122.90625,24.25 129.41062,8.852032 129.5625,8.78125 C 129.78281,8.687969 129.79625,9.1228128 129.875,9.5 L 131.84375,23.8125 C 132.28812,27.033906 130.08767,26.9325 130.125,27.0625 C 130.12922,27.075312 137.68751,27.093749 137.6875,27.09375 C 137.58921,26.772031 135.60111,27.318906 135.15625,23.65625 L 133.15625,8.125 C 133.15625,5.468125 135.37672,5.5617191 135.34375,5.375 L 129.90625,5.375 L 124.0625,18.75 C 123.86047,19.233906 123.86391,18.959844 123.6875,18.59375 C 123.6436,18.507031 123.61672,18.430782 123.53125,18.28125 L 117.53125,5.5625 L 117.46875,5.375 L 111.84375,5.375 z M 140.0625,5.4375 C 140.03187,5.72 142.40626,5.2021874 142.40625,8.78125 L 142.40625,23.8125 C 142.40625,27.386719 139.83782,26.966407 139.90625,27.125 L 156.625,27.125 L 156.78125,22.75 C 156.50469,22.807969 156.80828,24.407343 155.4375,25.46875 C 154.83562,25.931875 153.92016,26.285938 152.46875,26.375 L 146.5,26.40625 C 145.42031,26.400156 145.57828,26.187188 145.5625,24.5625 L 145.5625,21.75 L 145.5625,16.375 L 145.5625,16.3125 C 145.5625,15.517813 145.60094,15.103594 146.78125,15.125 L 152.15625,15.125 C 154.70391,15.044375 154.35703,17.625 154.59375,17.625 C 154.59375,17.625 154.60422,12.03125 154.59375,12.03125 C 154.35703,12.03125 154.71062,14.40625 152.03125,14.40625 L 146.71875,14.40625 C 145.57797,14.40625 145.5625,14.322187 145.5625,13.53125 L 145.5625,12.5 L 145.5625,7.875 C 145.5625,6.097656 145.9536,6.0937501 146.90625,6.09375 L 152.40625,6.09375 C 157.33188,6.387344 156.45047,9.7237503 156.78125,9.75 L 156.625,5.4375 L 140.0625,5.4375 z M 0.34375,5.65625 C 0.213125,5.8418749 3.125,5.908594 3.125,8.5625 L 3.125,24.78125 C 3.0792191,26.927813 0,26.998594 0,27.125 L 16.125,27.125 L 17.03125,22.46875 C 16.686406,22.437656 16.931094,26.309687 11.71875,26.375 L 8.65625,26.375 C 7.5942185,26.335938 6.3125,26.517188 6.3125,25.28125 L 6.3125,8.46875 C 6.3124998,5.8662501 9.275938,5.861406 9.46875,5.65625 L 0.34375,5.65625 z M 98.1875,5.8125 C 102.47093,5.8173442 105.40625,9.224844 105.40625,16.25 C 105.40625,22.354219 102.43671,26.266719 98.1875,26.3125 C 98.164208,26.3125 98.14828,26.3125 98.125,26.3125 C 93.837824,26.3125 91,22.388906 91,16.25 C 90.999997,9.2199999 93.90172,5.8125 98.1875,5.8125 z M 28.65625,9.71875 C 28.846432,9.6360018 29.046679,9.8417969 29.1875,10.25 L 31.1875,15.75 C 31.384531,16.355469 31.638906,16.53125 30.96875,16.53125 C 30.438907,16.532499 26.574688,16.53125 26.375,16.53125 C 25.784845,16.531249 25.866094,16.192812 26.09375,15.65625 C 26.093751,15.65625 28.076406,10.810782 28.3125,10.21875 C 28.426758,9.9356252 28.542141,9.7683989 28.65625,9.71875 z M 153.90625,30 L 153.0625,31.0625 L 153.75,31.0625 L 154.96875,30 L 153.90625,30 z M 34.71875,31.34375 C 32.258906,31.34375 31.375,32.744842 31.375,34.25 C 31.375,35.390156 32.074686,37.09375 34.71875,37.09375 C 37.363281,37.09375 38.031248,35.390155 38.03125,34.25 C 38.03125,32.744844 37.179061,31.34375 34.71875,31.34375 z M 59.53125,31.34375 C 57.301562,31.34375 56.406251,32.751404 56.40625,34.21875 C 56.40625,36.404375 58.132967,37.09375 59.5625,37.09375 C 60.646406,37.09375 61.233282,36.739689 61.65625,36.46875 L 61.875,37.03125 L 62.53125,37.03125 L 62.53125,34.15625 L 59.5625,34.15625 L 59.5625,35 L 61.53125,35 C 61.27,35.771406 60.66969,36.156249 59.59375,36.15625 C 58.409688,36.15625 57.499999,35.488751 57.5,34.1875 C 57.5,33.423906 57.935156,32.25 59.6875,32.25 C 60.970937,32.25 61.275625,32.908593 61.40625,33.1875 L 62.5,33.1875 C 62.230781,31.80375 60.815313,31.34375 59.53125,31.34375 z M 70.6875,31.34375 C 69.893892,31.42105 68.656252,31.731953 68.65625,32.96875 C 68.65625,33.807344 69.364687,34.357188 70.65625,34.53125 L 72,34.71875 C 72.799536,34.817031 73.218749,35.050471 73.21875,35.40625 C 73.21875,35.882344 72.484842,36.187501 71.59375,36.1875 C 70.117344,36.1875 69.700153,35.587811 69.5,35.1875 L 68.4375,35.53125 C 68.568125,35.948125 69.163909,37.09375 71.5625,37.09375 C 73.053591,37.09375 74.312503,36.61203 74.3125,35.3125 C 74.3125,34.390313 73.56563,33.90797 72.3125,33.71875 L 71,33.53125 C 69.885,33.395156 69.75,33.140627 69.75,32.90625 C 69.75,32.400156 70.480156,32.218748 71.21875,32.21875 C 72.548125,32.21875 73.011091,32.632969 73.1875,33.125 L 74.21875,32.8125 C 74.08016,32.433437 73.656095,31.34375 71.25,31.34375 C 71.142266,31.34375 70.952036,31.317983 70.6875,31.34375 z M 120.6875,31.34375 C 118.22657,31.34375 117.34375,32.744842 117.34375,34.25 C 117.34375,35.390156 118.04297,37.09375 120.6875,37.09375 C 123.33219,37.09375 124,35.390155 124,34.25 C 124,32.744844 123.14672,31.34375 120.6875,31.34375 z M 137.78125,31.34375 C 135.32094,31.34375 134.46874,32.744842 134.46875,34.25 C 134.46875,35.390156 135.13594,37.09375 137.78125,37.09375 C 140.42594,37.09375 141.125,35.390155 141.125,34.25 C 141.125,32.744844 140.24032,31.34375 137.78125,31.34375 z M 0.71875,31.46875 L 0.71875,36.96875 L 1.8125,36.96875 L 1.8125,34.59375 L 5.3125,34.59375 L 5.3125,33.65625 L 1.8125,33.65625 L 1.8125,32.375 L 5.875,32.375 L 5.875,31.46875 L 0.71875,31.46875 z M 9.53125,31.46875 L 6.78125,36.96875 L 7.9375,36.96875 L 8.53125,35.6875 L 11.75,35.6875 L 12.34375,36.96875 L 13.5,36.96875 L 10.78125,31.46875 L 9.53125,31.46875 z M 15.15625,31.46875 L 15.15625,34.59375 C 15.15625,36.362656 16.30375,37.09375 18.125,37.09375 C 19.946875,37.09375 21.093751,36.362655 21.09375,34.59375 L 21.09375,31.46875 L 20,31.46875 L 20,34.53125 C 20,35.438281 19.670312,36.187501 18.125,36.1875 C 16.580156,36.1875 16.25,35.438282 16.25,34.53125 L 16.25,31.46875 L 15.15625,31.46875 z M 23.65625,31.46875 L 23.65625,36.96875 L 27.21875,36.96875 C 28.579844,36.96875 29.40625,36.410782 29.40625,35.375 C 29.40625,34.656094 28.955,34.197343 28.5625,34.03125 C 28.862812,33.842656 29.21875,33.570782 29.21875,32.875 C 29.21875,31.83125 28.314844,31.468749 27,31.46875 L 23.65625,31.46875 z M 40.28125,31.46875 L 40.28125,34.59375 C 40.28125,36.362656 41.397501,37.09375 43.21875,37.09375 C 45.040625,37.09375 46.187498,36.362655 46.1875,34.59375 L 46.1875,31.46875 L 45.09375,31.46875 L 45.09375,34.53125 C 45.09375,35.438281 44.76422,36.187501 43.21875,36.1875 C 41.673906,36.1875 41.343752,35.438282 41.34375,34.53125 L 41.34375,31.46875 L 40.28125,31.46875 z M 48.78125,31.46875 L 48.78125,36.96875 L 49.875,36.96875 L 49.875,34.8125 L 51.59375,34.8125 L 53.21875,36.96875 L 54.5625,36.96875 L 52.84375,34.71875 C 53.665938,34.674844 54.406249,34.108125 54.40625,33.09375 C 54.40625,31.747812 53.447029,31.468749 52.125,31.46875 L 48.78125,31.46875 z M 78.59375,31.46875 L 75.8125,36.96875 L 77,36.96875 L 77.59375,35.6875 L 80.8125,35.6875 L 81.375,36.96875 L 82.53125,36.96875 L 79.8125,31.46875 L 78.59375,31.46875 z M 84.5625,31.46875 L 84.5625,36.96875 L 85.65625,36.96875 L 85.65625,31.46875 L 84.5625,31.46875 z M 88.28125,31.46875 L 88.28125,36.96875 L 89.34375,36.96875 L 89.34375,32.84375 L 93.21875,36.96875 L 94.21875,36.96875 L 94.21875,31.46875 L 93.1875,31.46875 L 93.1875,35.4375 L 89.4375,31.46875 L 88.28125,31.46875 z M 96.25,31.46875 L 96.25,32.375 L 98.75,32.375 L 98.75,36.96875 L 99.84375,36.96875 L 99.84375,32.375 L 102.34375,32.375 L 102.34375,31.46875 L 96.25,31.46875 z M 109.15625,31.46875 L 109.15625,36.96875 L 110.25,36.96875 L 110.25,34.59375 L 114,34.59375 L 114,36.96875 L 115.09375,36.96875 L 115.09375,31.46875 L 114,31.46875 L 114,33.65625 L 110.25,33.65625 L 110.25,31.46875 L 109.15625,31.46875 z M 126.28125,31.46875 L 126.28125,36.96875 L 127.3125,36.96875 L 127.3125,32.84375 L 131.21875,36.96875 L 132.21875,36.96875 L 132.21875,31.46875 L 131.15625,31.46875 L 131.15625,35.4375 L 127.4375,31.46875 L 126.28125,31.46875 z M 143.375,31.46875 L 143.375,36.96875 L 144.46875,36.96875 L 144.46875,34.8125 L 146.21875,34.8125 L 147.84375,36.96875 L 149.1875,36.96875 L 147.46875,34.71875 C 148.2914,34.674844 149.03125,34.108125 149.03125,33.09375 C 149.03125,31.747812 148.0714,31.468749 146.75,31.46875 L 143.375,31.46875 z M 151.40625,31.46875 L 151.40625,36.96875 L 156.53125,36.96875 L 156.53125,36.03125 L 152.5,36.03125 L 152.5,34.59375 L 155.875,34.59375 L 155.875,33.65625 L 152.5,33.65625 L 152.5,32.375 L 156.4375,32.375 L 156.4375,31.46875 L 151.40625,31.46875 z M 34.71875,32.25 C 35.995,32.25 36.9375,32.863751 36.9375,34.1875 C 36.9375,35.745156 35.764842,36.187501 34.71875,36.1875 C 33.673125,36.1875 32.468751,35.745157 32.46875,34.1875 C 32.46875,32.86375 33.443124,32.25 34.71875,32.25 z M 120.6875,32.25 C 121.96375,32.25 122.90625,32.863751 122.90625,34.1875 C 122.90625,35.745156 121.73313,36.187501 120.6875,36.1875 C 119.64204,36.1875 118.4375,35.745157 118.4375,34.1875 C 118.4375,32.86375 119.41125,32.25 120.6875,32.25 z M 137.78125,32.25 C 139.0575,32.25 140.03125,32.863751 140.03125,34.1875 C 140.03125,35.745156 138.82672,36.187501 137.78125,36.1875 C 136.73563,36.1875 135.5625,35.745157 135.5625,34.1875 C 135.5625,32.86375 136.50563,32.25 137.78125,32.25 z M 10.15625,32.34375 L 11.34375,34.78125 L 9,34.78125 L 10.15625,32.34375 z M 79.1875,32.34375 L 80.375,34.78125 L 78.03125,34.78125 L 79.1875,32.34375 z M 24.75,32.375 L 27.09375,32.375 C 27.808438,32.375 28.125,32.530625 28.125,33 C 28.125,33.461406 27.808439,33.625001 27.09375,33.625 L 24.75,33.625 L 24.75,32.375 z M 49.875,32.375 L 51.96875,32.375 C 52.860469,32.375 53.312501,32.481719 53.3125,33.125 C 53.3125,33.774375 52.860468,33.906249 51.96875,33.90625 L 49.875,33.90625 L 49.875,32.375 z M 144.46875,32.375 L 146.59375,32.375 C 147.48672,32.375 147.93749,32.481719 147.9375,33.125 C 147.9375,33.774375 147.48672,33.906249 146.59375,33.90625 L 144.46875,33.90625 L 144.46875,32.375 z M 103.09375,34.5 L 103.09375,35.15625 L 106.9375,35.15625 L 106.9375,34.5 L 103.09375,34.5 z M 24.75,34.53125 L 27.125,34.53125 C 27.862969,34.53125 28.34375,34.706874 28.34375,35.28125 C 28.34375,35.9325 27.816562,36.062501 27.125,36.0625 L 24.75,36.0625 L 24.75,34.53125 z "
       transform="translate(27.323504,-29.045663)"
       style="fill:#343c42;fill-opacity:1;fill-rule:nonzero;stroke:none"
       id="path3049" />
  </g>
</svg>
