<svg clip-rule="evenodd" fill-rule="evenodd" stroke-linejoin="round" stroke-miterlimit="2" viewBox="0 0 560 400" xmlns="http://www.w3.org/2000/svg"><g fill="#706d67" fill-rule="nonzero" transform="matrix(3.6 0 0 3.6 100 152.937)"><path d="m45.865 21.797c-3.327 0-5.558-2.239-5.558-5.59 0-3.35 2.231-5.574 5.558-5.574s5.539 2.237 5.539 5.574-2.231 5.59-5.539 5.59zm.008-15.37c-6.194 0-10.35 3.921-10.35 9.767 0 5.881 4.156 9.803 10.35 9.803 6.16 0 10.313-3.922 10.313-9.803 0-5.846-4.153-9.767-10.313-9.767z"/><path d="m11.753 6.47c.126-.001.248.048.338.136.091.088.143.209.144.335v3.701c-.001.092-.037.179-.1.246-.062.067-.147.108-.238.115-.793.046-2.814-.381-4.461.288-.554.261-1.041.645-1.425 1.123-.384.477-.654 1.036-.79 1.633-.226.971-.204 9.063-.193 11.112-.001.063-.014.125-.039.182-.024.058-.06.11-.104.153-.045.044-.098.079-.156.102s-.12.035-.182.034h-4.066c-.062.001-.124-.011-.182-.034s-.111-.058-.156-.102c-.045-.043-.08-.095-.105-.153-.024-.057-.037-.119-.038-.182v-17.803c.001-.07.015-.139.043-.203.027-.065.067-.123.117-.172s.109-.088.174-.114.135-.039.205-.038h3.782c.138-.001.272.051.372.146.101.095.16.225.167.363l.024 1.068c.002.063.025.123.066.17.041.048.096.081.157.093.061.013.125.004.181-.024s.101-.074.128-.13c.403-.847 1.016-1.606 1.731-1.863.366-.129.752-.194 1.14-.194z"/><path d="m33.608 14.007v11.154c-.001.063-.014.125-.039.183-.024.057-.06.109-.105.153s-.098.078-.156.102c-.058.023-.121.034-.183.033h-4.066c-.126.002-.248-.047-.338-.135-.091-.089-.143-.209-.144-.336v-10.358c0-2.531-1.848-4.194-4.66-4.194h-2.914c-.227-.003-.452.039-.662.124-.211.084-.403.209-.565.368-.162.158-.292.347-.381.556-.089.208-.136.432-.138.659v12.845c-.001.063-.014.125-.039.183-.024.057-.06.109-.105.153s-.098.078-.156.102c-.058.023-.121.034-.183.033h-4.066c-.126.002-.248-.047-.338-.135-.091-.089-.143-.209-.144-.336v-24.545c.001-.126.053-.247.144-.335.09-.088.212-.137.338-.136h4.066c.126-.001.248.048.339.136.09.088.142.209.144.335v5.326c.001.126.052.247.143.336.09.088.211.138.338.137h5.957c4.743.017 7.913 3.049 7.913 7.59"/><path d="m73.561 16.686c0 2.805-2.326 5.081-5.196 5.081-2.869 0-5.193-2.273-5.193-5.081v-.947c0-2.805 2.325-5.082 5.193-5.082h3.586c.209-.002.417.036.611.114.193.078.37.193.52.339.149.146.268.32.35.512.083.192.126.398.129.607zm4.165-16.54h-3.308c-.113-.002-.225.018-.33.06-.104.041-.2.103-.28.182-.081.079-.144.173-.188.277s-.066.215-.066.328v4.78c-.004.183-.08.356-.211.483s-.306.197-.489.195h-5.356c-5.4 0-9.542 4.086-9.542 10.197 0 6.002 4.142 9.334 9.542 9.334 2.214 0 4.015-.64 5.358-1.768.556-.468.678-.126.705.589.02.454.074.816.994.816h3.171c.113.003.225-.018.329-.059.105-.042.2-.104.281-.183.08-.078.144-.173.188-.276.043-.104.066-.216.066-.328v-23.78c0-.113-.023-.224-.066-.328-.044-.104-.108-.198-.188-.277-.081-.079-.176-.141-.281-.182-.104-.042-.216-.062-.329-.06z"/><path d="m90.267 10.625c2.084 0 4.154 1.265 4.252 3.24 0 .019-.003.038-.011.056-.007.018-.018.034-.031.048-.014.013-.03.024-.048.031s-.037.011-.056.011h-8.348c-.019 0-.038-.003-.056-.01-.017-.008-.033-.018-.047-.032-.013-.013-.024-.03-.031-.048s-.01-.037-.009-.056c.105-1.934 2.291-3.24 4.385-3.24zm8.858 7.284c.203.004.401-.068.554-.202.154-.134.252-.32.276-.522.03-.322.045-.651.045-.987 0-5.853-3.78-9.776-9.741-9.768-5.724.009-9.859 4.262-9.825 9.859.041 5.831 3.884 9.712 9.838 9.712 4.279 0 7.31-2.033 8.809-5.358.029-.072.039-.149.031-.225-.008-.077-.036-.15-.079-.213-.044-.064-.103-.115-.171-.15-.069-.035-.145-.053-.222-.051h-4.307c-.167.004-.332.041-.484.11s-.288.168-.401.291c-.855.883-1.783 1.396-3.179 1.396-2.431 0-4.393-1.494-4.393-3.896z"/></g></svg>