<svg clip-rule="evenodd" fill-rule="evenodd" stroke-linejoin="round" stroke-miterlimit="2" viewBox="0 0 560 400" xmlns="http://www.w3.org/2000/svg"><path d="m126.371 26.294v32.448h-3.907v-32.448h-12.206v-3.726h27.72v3.726zm44.994 32.448c.6-1.2 17.743-36.138 18.007-36.68h.22c.225.507 16.874 34.832 17.737 36.68h-4.392c-.437-.859-1.994-4.137-2.654-5.502-1.07 0-20.345.017-21.919.017-.428.827-2.173 4.345-2.658 5.485-.698.052-3.525 0-4.341 0zm18.007-28.478c-.968 2.065-8.57 17.797-9.213 19.26 1.46 0 16.717-.025 18.295-.025-.437-1.025-8.209-17.336-9.082-19.235zm258.396 28.478c.607-1.2 17.754-36.138 18.016-36.68h.221c.205.507 16.866 34.832 17.734 36.68h-4.405c-.886-1.83-1.763-3.664-2.63-5.502-1.087 0-20.354.017-21.936.017-.427.827-2.167 4.345-2.644 5.485-.72.052-3.533 0-4.356 0zm18.016-28.478c-.973 2.065-8.567 17.797-9.225 19.26 1.472 0 16.73-.025 18.298-.025-.437-1.025-8.214-17.336-9.073-19.235zm-208.844-3.97v32.448h-3.9v-32.448h-12.21v-3.726h27.716v3.726zm68.771 33.33c-10.472 0-18.988-8.481-18.988-18.93 0-10.491 8.516-18.999 18.988-18.999 5.312 0 10.255 2 13.666 5.797-.597.59-2.22 2.33-2.93 2.937-2.692-3.083-6.597-4.849-10.69-4.833-8.075 0-14.69 6.733-14.69 15.098 0 8.337 6.615 15.022 14.69 15.022 4.184 0 7.926-1.81 10.641-4.733.654.654 2.319 2.282 2.863 2.873-3.355 3.584-8.175 5.767-13.55 5.767zm55.461-37.056h3.802v26.385h20.448v-26.385h3.856v36.174h-3.856v-6.047h-20.448v6.047h-3.802zm109.203 31.9h-1.436v-.448h3.365v.448h-1.437v3.835h-.492zm2.838-.448h.49l1.56 2.338 1.561-2.338h.488v4.283h-.481v-3.47l-1.561 2.293h-.026l-1.563-2.287v3.464h-.468zm-452.214 27.98c-22.606 0-40.999-18.392-40.999-41.002s18.393-40.998 40.999-40.998 40.999 18.393 40.999 40.998-18.393 41.002-41 41.002zm0-75.692c-19.13 0-34.692 15.562-34.692 34.69s15.561 34.694 34.692 34.694 34.691-15.562 34.691-34.694-15.56-34.69-34.69-34.69zm.041 42.643c-.272 0-.542-.1-.749-.308l-2.297-2.3-.173.173-13.121 13.239s-1.565 1.348-.664 2.483l5.088 5.247s.848 1.17 2.189.66c.984-.371 5.072-2.074 7.587-3.181l-5.845-5.593c-.21-.201-.329-.48-.329-.771 0-.585.481-1.067 1.066-1.067.275 0 .54.106.738.296l6.412 6.137.027.023 6.143-6.145c.415-.411 1.094-.411 1.509 0 .413.416.413 1.096 0 1.512l-5.615 5.614c2.518 1.112 6.582 2.81 7.568 3.175 1.366.51 2.191-.66 2.191-.66l5.085-5.247c1.011-1.2-.663-2.483-.663-2.483l-13.12-13.237-.077-.076-2.201 2.202c-.199.199-.469.31-.75.308zm-7.633-8.692 2.24-2.24-.155-.156-13.237-13.123s-1.344-1.56-2.482-.662l-5.248 5.088s-1.171.85-.662 2.19c.374.985 2.076 5.07 3.186 7.588l5.591-5.843c.203-.236.498-.371.809-.371.585 0 1.067.481 1.067 1.067 0 .293-.121.574-.335.776l-6.136 6.413-.025.025 6.145 6.144c.411.415.411 1.095 0 1.51-.415.412-1.094.412-1.509 0l-5.615-5.616c-1.111 2.52-2.81 6.582-3.178 7.57-.51 1.364.662 2.19.662 2.19l5.248 5.083c1.2 1.015 2.482-.66 2.482-.66l13.237-13.122.134-.132-2.22-2.22c-.411-.412-.411-1.088 0-1.5zm8.383-6.883 2.212 2.215.112-.11 13.118-13.237s1.565-1.346.664-2.481l-5.084-5.247s-.852-1.17-2.192-.66c-.985.371-5.07 2.073-7.587 3.181l5.844 5.59c.425.41.441 1.087.034 1.513-.212.215-.49.327-.77.327-.266 0-.533-.097-.738-.293l-6.414-6.14-.026-.022-6.143 6.147c-.416.409-1.092.409-1.508 0-.413-.417-.413-1.098 0-1.515l5.613-5.613c-2.517-1.112-6.58-2.808-7.566-3.175-1.366-.51-2.194.66-2.194.66l-5.082 5.247c-1.013 1.198.66 2.48.66 2.48l13.123 13.238.162.163 2.263-2.268c.412-.409 1.088-.409 1.5 0zm23.16 9.702-5.593 5.84c-.202.224-.49.353-.792.353-.585 0-1.066-.482-1.066-1.066 0-.286.115-.56.318-.76l6.137-6.414.023-.025-6.147-6.143c-.412-.415-.412-1.093 0-1.508.415-.413 1.097-.413 1.512 0l5.614 5.618c1.11-2.522 2.812-6.585 3.179-7.572.51-1.365-.662-2.192-.662-2.192l-5.25-5.082c-1.198-1.015-2.48.66-2.48.66l-13.237 13.123-.093.09 2.26 2.26c.411.412.411 1.088 0 1.5l-2.285 2.283.118.116 13.237 13.12s1.345 1.56 2.48.664l5.25-5.088s1.171-.848.662-2.192c-.375-.988-2.076-5.068-3.186-7.584z" fill="#552389" fill-rule="nonzero" transform="matrix(1.00541 0 0 1.00541 30 158.778)"/></svg>