<?xml version="1.0" encoding="UTF-8" standalone="no"?>
<svg
   width="227.692"
   height="80"
   viewBox="0 0 227.692 80"
   fill="none"
   version="1.1"
   id="svg4"
   sodipodi:docname="Urban Decay logo.svg"
   inkscape:version="1.1.1 (3bf5ae0d25, 2021-09-20)"
   xmlns:inkscape="http://www.inkscape.org/namespaces/inkscape"
   xmlns:sodipodi="http://sodipodi.sourceforge.net/DTD/sodipodi-0.dtd"
   xmlns="http://www.w3.org/2000/svg"
   xmlns:svg="http://www.w3.org/2000/svg">
  <defs
     id="defs8" />
  <sodipodi:namedview
     id="namedview6"
     pagecolor="#ffffff"
     bordercolor="#999999"
     borderopacity="1"
     inkscape:pageshadow="0"
     inkscape:pageopacity="0"
     inkscape:pagecheckerboard="0"
     showgrid="false"
     fit-margin-top="10"
     fit-margin-right="10"
     fit-margin-bottom="10"
     fit-margin-left="10"
     inkscape:zoom="4.2491803"
     inkscape:cx="108.60918"
     inkscape:cy="38.948688"
     inkscape:window-width="1920"
     inkscape:window-height="1001"
     inkscape:window-x="-9"
     inkscape:window-y="-9"
     inkscape:window-maximized="1"
     inkscape:current-layer="svg4" />
  <path
     fill-rule="evenodd"
     clip-rule="evenodd"
     d="M 11.5361,53.9119 C 11.4916,51.5799 11.2107,51.561 10,51.45 v -0.5096 h 5.7758 l 0.1296,0.5096 c -0.0428,0 -0.2405,0.0227 -0.3473,0.0416 -1.7492,0.2862 -1.8592,0.3297 -1.8592,5.8741 0,3.8301 0.2795,4.865 1.1444,5.5697 0.9098,0.7487 2.0755,0.8814 2.7895,0.8814 0.3699,0 3.0722,-0.019 3.8507,-2.0702 0.474,-1.2758 0.6063,-3.7595 0.6063,-6.4928 0,-3.5869 -0.4136,-3.6045 -1.8411,-3.6928 l -0.0863,-0.6206 1.1716,-0.0439 c 0.3258,0 0.7112,0.0439 1.143,0.0439 h 2.1183 v 0.6206 c -0.4741,0.0189 -1.1003,0.0407 -1.2744,0.4559 -0.1509,0.3787 -0.1509,2.6672 -0.1509,3.2369 -0.0227,1.9149 -0.234,5.7867 -0.9057,7.2622 -0.913,1.9828 -3.7417,2.289 -5.3846,2.289 -2.0155,0 -5.3881,-0.4833 -5.3881,-4.3342 0,-0.573 0.1063,-3.4103 0.1063,-4.0462 z m 41.7856,10.2092 c 1.5111,0 1.6179,-0.1998 1.6179,-6.1621 0,-5.5203 -0.0855,-5.6331 -0.4527,-6.1164 -0.264,-0.3704 -0.9326,-0.4152 -1.1652,-0.4152 v -0.597 c 0.5835,0.0467 1.102,0.0883 2.2019,0.0883 0.1954,0 0.8054,-0.0416 1.4274,-0.0638 0.608,-0.0444 1.257,-0.067 1.474,-0.067 2.853,0 4.062,1.5171 4.062,3.235 0,1.3207 -0.686,2.5733 -2.811,3.0371 v 0.0463 c 3.658,0.4804 4.173,2.7916 4.173,3.8681 0,1.5634 -0.973,3.7437 -5.078,3.7437 -0.239,0 -0.909,-0.0236 -1.605,-0.0426 -0.69,-0.0208 -1.3789,-0.0476 -1.6424,-0.0476 -1.3625,0 -1.597,0.0476 -2.2019,0.1091 z M 57.755,51.5374 c -0.455,0 -0.544,0.0643 -0.589,0.3288 -0.145,0.9267 -0.145,3.8519 -0.145,4.9719 2.439,0.1762 3.089,-0.9683 3.089,-2.4369 0,-1.3447 -0.54,-2.8638 -2.355,-2.8638 z m 0,6.0276 c -0.218,0 -0.498,0.0217 -0.734,0.0462 0,4.7532 0,5.5398 0.082,5.9194 0.087,0.3907 0.285,0.4587 1.123,0.4587 2.728,0 3.286,-1.4071 3.286,-2.8813 0,-3.3469 -3.047,-3.543 -3.757,-3.543 z m 17.019,4.0056 c -0.156,0.3954 -0.522,1.2781 -0.522,1.6041 0,0.8143 1.04,0.9466 1.647,1.0368 v 0.5068 c -0.155,0 -0.802,-0.0236 -1.428,-0.0426 -0.633,-0.0199 -1.214,-0.0481 -1.259,-0.0481 -0.257,0 -1.162,0 -1.51,0.0282 v -0.4443 c 0.348,-0.068 0.884,-0.1772 1.296,-0.8588 0.756,-1.2323 4.501,-10.586 4.778,-11.3346 0.219,-0.5457 0.35,-0.9429 0.476,-1.3415 h 0.565 c 0.127,0.4453 0.256,0.9239 0.519,1.6494 0.455,1.304 2.612,6.9769 3.048,8.1445 1.251,3.543 1.62,3.6119 2.49,3.741 v 0.4443 c -0.501,-0.049 -0.996,-0.0938 -1.905,-0.0938 -1.34,0 -2.358,0.1137 -3.03,0.1563 v -0.5068 c 0.563,-0.0902 1.08,-0.3052 1.08,-0.812 0,-0.3108 -1.056,-3.1925 -1.164,-3.5014 -0.388,-0.0426 -0.63,-0.0662 -1.556,-0.0662 -0.8,0 -1.835,0 -2.878,0.1499 z m 1.036,-2.6408 c 0.586,0.0892 1.406,0.197 2.338,0.197 0.709,0 1.058,-0.0444 1.405,-0.0888 -0.582,-1.6263 -1.193,-3.297 -1.906,-4.7712 z m 30.857,1.8894 c 0,-0.6811 0.065,-3.7807 0.065,-4.3948 0,-4.6916 -0.175,-4.9104 -2.208,-5.1073 l 0.197,-0.4879 c 0.129,-0.0194 0.325,-0.0402 0.538,-0.0402 0.176,0 0.654,0.0208 1.145,0.0656 0.5,0.0643 1.02,0.086 1.19,0.086 0.112,0 1.496,-0.0217 1.773,-0.0217 v 0.5545 c -0.3,-0.0236 -0.902,-0.0236 -1.166,0.4813 -0.409,0.7921 -0.453,4.534 -0.453,5.697 -0.019,0.7495 -0.064,4.029 -0.064,4.6856 0,0.2451 0.045,1.1491 0.064,1.7632 l 0.044,0.8379 h -0.648 c -0.74,-1.4081 -1.885,-2.5549 -3.03,-3.6559 l -6.64,-6.489 c -0.278,-0.2853 -0.605,-0.6206 -0.887,-0.8374 -0.023,0.4453 -0.067,1.4505 -0.067,1.8949 l -0.081,5.0801 c -0.025,2.0476 -0.025,2.8388 2.378,3.2124 0.062,0.2649 0.021,0.4425 0,0.5937 -0.28,-0.0189 -0.542,-0.0624 -0.864,-0.1096 -0.306,-0.0208 -0.671,-0.0416 -1.189,-0.0416 -0.478,0 -2.575,0.1323 -3.011,0.1512 -0.017,-0.2386 -0.017,-0.3029 0,-0.5937 1.366,-0.0222 1.494,-0.7907 1.54,-2.6612 l 0.106,-6.4451 c 0.043,-1.8316 0.024,-3.3271 -1.817,-3.6106 -0.019,-0.2423 -0.019,-0.3297 0,-0.6603 0.112,0 0.563,0.0435 1.016,0.0629 0.456,0.0254 0.933,0.0472 1.106,0.0472 h 1.015 c 1.339,1.5625 1.403,1.6267 5.06,5.1947 0.997,1.0099 1.989,2.0018 3.029,2.9678 z m 17.619,-1.7133 c 0,-0.8148 -0.044,-4.2486 -0.13,-5.3469 -0.13,-1.7807 -0.155,-2.0499 -1.409,-2.1331 V 51.028 l 3.267,-0.0647 c 0.842,-0.0218 2.575,-0.2188 3.354,-0.2188 4.582,0 7.868,2.8568 7.868,6.8669 0,3.076 -2.072,7.0643 -8.106,7.0643 -0.541,0 -2.854,-0.1138 -3.331,-0.1138 -0.393,0 -2.14,0.0245 -2.512,0.0245 h -0.649 v -0.5521 c 1.407,-0.0634 1.648,-0.1507 1.648,-3.476 z m 4.647,-7.6335 c -0.474,0 -1.314,0.0416 -2.268,0.5059 -0.131,1.3835 -0.173,2.6172 -0.173,5.2127 0,0.9711 0.019,4.356 0.062,6.1427 0.713,0.2373 1.731,0.5887 2.835,0.5887 2.877,0 5.168,-2.4818 5.168,-6.2472 0,-4.5959 -3.284,-6.2028 -5.624,-6.2028 z m 26.015,8.4265 h -0.5 c -0.258,-1.8903 -0.258,-1.9787 -3.675,-1.9787 -0.884,0 -1.167,0.0389 -1.663,0.1281 0,0.308 -0.064,2.8388 -0.064,2.9063 0,1.2083 0.151,2.024 0.257,2.6163 0.713,0.1337 1.751,0.3126 2.984,0.3126 3.247,0 3.832,-1.698 4.111,-2.4873 h 0.474 c -0.104,1.2527 -0.303,1.8894 -0.929,3.3654 -2.877,-0.1752 -3.656,-0.1997 -5.666,-0.1997 -1.988,0 -2.92,0.0453 -5.039,0.1997 l 0.066,-0.5757 c 0.781,-0.1516 1.212,-0.2635 1.339,-0.9858 0.219,-1.2338 0.256,-5.038 0.256,-6.4928 0,-0.5503 -0.15,-3.254 -0.15,-3.8755 -0.082,-1.2059 -0.278,-1.3178 -1.079,-1.5148 -0.085,-0.0232 -0.215,-0.043 -0.237,-0.0685 v -0.3722 h 6.833 c 1.517,0 2.271,0 3.677,-0.1101 0.062,1.5181 -0.257,2.9243 -0.54,2.9243 -0.107,0 -0.301,-0.0448 -0.455,-0.0615 0.063,-0.2672 0.131,-0.5715 0.131,-0.8624 0,-0.8351 -0.91,-1.2055 -3.054,-1.2055 -0.882,0 -1.791,0.1064 -2.722,0.2391 -0.153,1.3197 -0.213,2.1345 -0.213,3.4094 0,0.4869 0,0.8809 0.02,1.9148 0.496,0.0227 1.21,0.0671 1.969,0.0671 1.512,0 2.635,-0.1531 2.812,-0.2442 0.366,-0.1517 0.557,-1.2291 0.557,-1.2508 h 0.5 z m 21.329,4.2873 c -2.036,0.5752 -4.002,0.6177 -4.237,0.6177 -4.197,0 -7.354,-2.9714 -7.354,-7.1086 0,-4.7712 3.784,-7.0602 7.806,-7.0602 0.887,0 1.709,0.1096 2.659,0.486 0.241,0.087 0.673,0.2386 0.886,0.2386 0.221,0 0.394,-0.0869 0.586,-0.1743 l 0.282,0.0874 c -0.088,0.4176 -0.54,2.5091 -0.628,2.9951 l -0.347,-0.0948 c -0.106,-0.9212 -0.132,-1.2051 -0.431,-1.5177 -0.303,-0.3491 -1.58,-1.2499 -3.459,-1.2499 -4.803,0 -4.803,5.0371 -4.803,6.1816 0,6.0326 4.28,6.4691 5.124,6.4691 1.906,0 3.504,-1.0154 4.113,-2.9053 l 0.494,0.0684 c -0.019,0.308 -0.019,0.4795 -0.171,1.034 -0.044,0.1516 -0.257,0.898 -0.279,1.0325 z m 12.591,-2.6156 c -0.152,0.3954 -0.515,1.2781 -0.515,1.6041 0,0.8143 1.036,0.9466 1.643,1.0368 v 0.5068 c -0.153,0 -0.802,-0.0236 -1.429,-0.0426 -0.626,-0.0199 -1.215,-0.0481 -1.255,-0.0481 -0.26,0 -1.163,0 -1.513,0.0282 v -0.4443 c 0.35,-0.068 0.887,-0.1772 1.292,-0.8588 0.763,-1.2323 4.502,-10.586 4.784,-11.3346 0.214,-0.5457 0.349,-0.9429 0.474,-1.3415 h 0.565 c 0.132,0.4453 0.263,0.9239 0.518,1.6494 0.454,1.304 2.614,6.9769 3.051,8.1445 1.253,3.543 1.62,3.6119 2.49,3.741 v 0.4443 c -0.505,-0.049 -1.002,-0.0938 -1.908,-0.0938 -1.338,0 -2.357,0.1137 -3.026,0.1563 v -0.5068 c 0.561,-0.0902 1.078,-0.3052 1.078,-0.812 0,-0.3108 -1.058,-3.1925 -1.164,-3.5014 -0.39,-0.0426 -0.631,-0.0662 -1.559,-0.0662 -0.801,0 -1.838,0 -2.874,0.1499 z m 1.038,-2.6408 c 0.586,0.0892 1.403,0.197 2.334,0.197 0.714,0 1.063,-0.0444 1.405,-0.0888 -0.577,-1.6263 -1.187,-3.297 -1.904,-4.7712 z m 22.01,-0.7677 c 0,0.8356 0,4.8382 0.088,5.2789 0.11,0.4643 1.318,0.7242 1.796,0.7931 l -0.046,0.5031 c -0.716,-0.0624 -1.838,-0.1744 -2.747,-0.1744 -0.497,0 -2.703,0.1744 -3.133,0.1744 l 0.02,-0.5031 c 1.343,-0.1119 1.559,-0.4171 1.684,-0.8583 0.131,-0.4624 0.131,-3.5004 0.131,-4.2699 0,-0.2645 0,-0.3695 -0.017,-0.7713 -0.672,-1.1019 -1.234,-2.0249 -3.484,-5.0838 -0.819,-1.0307 -1.473,-1.845 -2.834,-1.845 l -0.089,-0.5295 c 0.218,0 0.824,0.0208 1.45,0.0208 0.632,0.0218 1.257,0.0444 1.473,0.0444 l 2.961,-0.0444 -0.087,0.5942 c -0.192,0 -1.145,0 -1.145,0.3977 0,0.3954 2.377,3.7414 3.68,5.3437 2.725,-4.3342 2.852,-4.552 2.852,-5.0334 0,-0.6608 -0.731,-0.6608 -1.344,-0.6853 l 0.069,-0.6377 c 0.192,0 0.582,0.0208 1.033,0.0426 0.436,0.0226 0.932,0.0444 1.301,0.0444 0.344,0 1.838,-0.0444 2.164,-0.0444 l -0.023,0.707 c -1.491,0.0236 -2.27,0.5942 -4.867,5.038 z M 53.3643,68.8193 c 0.115,-0.0633 -0.1518,0.7117 -0.8449,0.9544 -1.2234,0.5004 -2.7172,0.0148 -2.7172,0.0148 -2.2256,-0.633 -3.5417,-1.5754 -5.5918,-3.9208 -1.9106,-2.1396 -2.2924,-2.9377 -4.3043,-6.1746 -0.6367,-1.2564 -1.4902,-1.6952 -1.8806,-1.7433 -0.6367,-0.1498 -1.2884,0.0472 -1.4016,0.142 -0.0245,0.4841 -0.0445,0.8823 -0.0445,2.1151 0,0.7241 0,2.9252 0.2827,3.3867 0.2781,0.4199 1.1448,0.6168 1.4484,0.6612 l -0.085,0.5276 C 37.5315,64.6946 37.1402,64.6747 36.7962,64.6557 36.4253,64.628 36.1036,64.628 35.5,64.628 c -0.8894,0 -1.0602,0 -2.6591,0.1544 v -0.5276 c 0.9303,-0.2834 1.2735,-0.4379 1.4257,-1.1454 0.1523,-0.5932 0.1941,-5.6354 0.1941,-6.7535 0,-2.8605 -0.0209,-3.3238 -0.0859,-3.8293 -0.1309,-0.9881 -0.9958,-1.0126 -1.4471,-1.0344 l 0.0869,-0.5734 c 0.2981,0 1.5783,0.0218 1.8369,0.0218 0.2781,0 1.0348,-0.0435 1.7724,-0.111 0.7572,-0.0624 1.4925,-0.1286 1.7479,-0.1286 3.5503,0 4.911,2.0231 4.911,3.6734 0,1.6263 -1.3098,2.8582 -3.0154,3.4339 0.0018,0.0079 0.0077,0.0153 0.0118,0.0278 1.063,0.3514 2.386,3.0958 3.7312,4.9635 1.9092,2.8698 3.5226,4.2034 4.4606,4.8674 2.5637,1.8261 4.4465,1.2804 4.8933,1.1523 z M 37.6828,57.4106 c 1.0408,0 3.2677,0 3.2677,-2.8151 0,-0.7921 -0.3909,-3.236 -3.0095,-3.236 -1.1239,0 -1.1239,0.2899 -1.188,1.6971 -0.0872,2.0882 -0.0872,2.3499 -0.0659,4.2694 0.3263,0.0648 0.4131,0.0846 0.9957,0.0846 z M 128.613,17.1665 c 6.123,2.2912 6.351,6.643 6.351,12.6895 0,8.0627 -0.723,9.0231 -4.46,9.9387 -2.477,0.5979 -4.143,1.5135 -5.402,3.9864 -2.567,-2.38 -5.628,-4.4419 -9.094,-5.4056 v -0.5488 c 1.62,-0.1378 1.666,-1.3299 1.666,-1.8788 V 23.8095 c 0.673,0.2284 1.575,0.4569 2.385,0.4569 1.576,0 3.558,-0.1383 3.558,-1.876 -2.927,-0.8254 -6.664,-2.6594 -6.664,-6.4618 0,-2.5567 1.519,-4.6805 3.507,-5.5369 0.093,-0.0389 0.183,-0.0837 0.278,-0.1193 0.009,-0.0019 0.019,-0.0042 0.027,-0.007 0.166,-0.0592 0.336,-0.11 0.508,-0.1521 0.007,-9e-4 0.013,-0.0019 0.025,-0.0046 0.128,-0.0319 0.255,-0.05 0.386,-0.0689 0.197,-0.0259 0.401,-0.0398 0.609,-0.0398 1.607,0 2.939,0.8134 3.22,1.8839 -0.138,-0.1337 -0.411,-0.5577 -1.083,-0.7505 -3.126,-0.9364 -3.995,0.9257 -3.982,1.5523 0.019,1.0538 0.633,1.4649 1.588,1.8987 0.049,0.0194 0.092,0.0402 0.138,0.0619 z m -0.405,21.4856 V 26.9253 c 0,-2.1086 -0.631,-3.5754 -3.78,-4.2626 v 13.1506 c 1.439,0.7306 2.698,1.8288 3.78,2.8388 z m -12.407,-3.7974 -5.944,5.4981 c -2.205,-1.2383 -4.097,-2.522 -4.142,-5.4981 l -7.384,5.4981 c -1.475,-1.5028 -3.267,-3.0015 -5.312,-4.49 v -0.5517 c 1.755,0 2.431,-0.5933 2.431,-2.3819 V 22.5323 c 0.02,-1.1972 -1.004,-4.4766 -3.722,-3.4237 -0.76,0.2946 -1.921,1.7669 0.14,4.3365 0.438,0.554 0.924,0.6465 1.101,0.7242 -1.08,0.1535 -2.335,-0.781 -2.956,-2.288 -0.083,-0.1961 -0.145,-0.3926 -0.199,-0.5869 -0.033,-0.1294 -0.066,-0.2575 -0.091,-0.3902 0,-0.0084 -0.001,-0.0144 -0.003,-0.0264 -0.03,-0.1752 -0.048,-0.3537 -0.06,-0.5336 0,-0.0088 -10e-4,-0.0171 -10e-4,-0.0273 -0.007,-0.1017 -0.003,-0.203 -0.003,-0.307 0.004,-2.1974 1.339,-4.4457 3.656,-5.4376 1.898,-0.8143 3.695,-0.3273 5.242,0.6798 l 0.002,-0.0042 c 0.043,0.0259 0.08,0.0541 0.119,0.0819 0.052,0.0337 0.098,0.0675 0.147,0.1017 3.33,2.289 3.382,4.8045 3.382,6.3217 v 11.8179 c 0,0.8249 0.223,1.8774 1.08,1.8774 0.449,0 0.721,-0.1813 1.079,-0.4093 l 1.352,-0.9646 V 21.6611 c 0.013,-1.0163 -0.702,-1.1222 -1.602,-1.168 l -0.135,-0.4319 c 1.722,-1.5533 5.07,-4.8133 5.07,-4.8133 0,0 3.33,3.802 5.717,4.3971 v 0.5489 h -0.721 c -1.26,0 -1.575,0.7796 -1.575,2.5197 v 10.2156 c 0,1.6055 0.721,2.1993 1.575,2.1993 0.496,0 1.079,-0.5013 1.396,-0.8708 z"
     fill="#000000"
     id="path2" />
</svg>
