<svg xmlns="http://www.w3.org/2000/svg" width="576.2217" height="120.1528" viewBox="0 0 576.2217 120.1528"><g id="Layer_2" data-name="Layer 2"><g id="Layer_1-2" data-name="Layer 1"><path d="M38.628,26.9253a19.9836,19.9836,0,0,0-5.2871-2.5127q-2.6631-.7874-4.1631-1.0874-5.0259-1.2744-8.1377-2.1a30.0248,30.0248,0,0,1-4.875-1.65,5.3477,5.3477,0,0,1-2.3623-1.8,4.8081,4.8081,0,0,1-.6-2.55,5.0288,5.0288,0,0,1,.75-2.85A6.5016,6.5016,0,0,1,15.8653,10.5a7.6431,7.6431,0,0,1,2.5879-1.05,13.8438,13.8438,0,0,1,2.85-.3,20.089,20.089,0,0,1,4.0127.375A9.6855,9.6855,0,0,1,28.5782,10.8a6.6315,6.6315,0,0,1,2.2871,2.4751A9.4879,9.4879,0,0,1,31.878,17.25h11.4a16.4587,16.4587,0,0,0-1.7627-7.9121A15.3857,15.3857,0,0,0,36.753,3.9751,20.1558,20.1558,0,0,0,29.8907.9375,34.1022,34.1022,0,0,0,21.8282,0a27.4855,27.4855,0,0,0-7.2.9751,20.0987,20.0987,0,0,0-6.45,3A15.9529,15.9529,0,0,0,3.5655,9.0376,14.0165,14.0165,0,0,0,1.8028,16.2a13.085,13.085,0,0,0,1.3877,6.2627,13.2463,13.2463,0,0,0,3.6377,4.3125,20.0656,20.0656,0,0,0,5.1,2.8125,51.0684,51.0684,0,0,0,5.8506,1.8374q2.9238.8262,5.7744,1.5A36.3537,36.3537,0,0,1,28.6534,34.5,11.0116,11.0116,0,0,1,32.29,36.75a4.7008,4.7008,0,0,1,1.3877,3.5254,5.1789,5.1789,0,0,1-1.05,3.3374,7.3645,7.3645,0,0,1-2.625,2.0625,11.7013,11.7013,0,0,1-3.375,1.0122,23.3492,23.3492,0,0,1-3.375.2627,17.8907,17.8907,0,0,1-4.5-.5625,11.1643,11.1643,0,0,1-3.7871-1.7251A8.4938,8.4938,0,0,1,12.378,41.625a9.8132,9.8132,0,0,1-.9746-4.5747H.003a17.6761,17.6761,0,0,0,1.8,8.55,16.8322,16.8322,0,0,0,5.0625,5.9253,21.5753,21.5753,0,0,0,7.3506,3.4121,33.8409,33.8409,0,0,0,8.5869,1.0879A32.9913,32.9913,0,0,0,32.4405,54.75a20.3513,20.3513,0,0,0,6.9746-3.5625A14.8361,14.8361,0,0,0,43.6534,45.75a16.3725,16.3725,0,0,0,1.4248-6.8247,13.1267,13.1267,0,0,0-1.9131-7.3877A15.9854,15.9854,0,0,0,38.628,26.9253Z"/><path d="M66.6768,1.2754l-20.25,53.55h11.85l4.2-11.9248H82.502l4.05,11.9248H98.7764L78.752,1.2754Zm-1.125,32.85,6.9746-19.65h.15l6.75,19.65Z"/><rect x="103.4268" y="1.2754" width="11.7754" height="53.5498"/><polygon points="248.576 1.275 236.801 1.275 236.801 54.825 274.676 54.825 274.676 44.925 248.576 44.925 248.576 1.275"/><path d="M297.9,1.2754l-20.25,53.55H289.5L293.6993,42.9h20.0253l4.05,11.9248H330l-20.0254-53.55Zm-1.125,32.85,6.9755-19.65H303.9l6.75,19.65Z"/><path d="M365.3243,34.5752q0,6.0015-2.3995,8.8125-2.4008,2.8125-8.7,2.8125a13.5569,13.5569,0,0,1-5.7373-1.0127,8.3159,8.3159,0,0,1-4.913-6.3374,24.255,24.255,0,0,1-.375-4.2749v-33.3H331.4248v33.3q0,10.9512,5.962,16.2t16.8378,5.25q10.7242,0,16.8-5.2876T377.1,34.5752v-33.3H365.3243Z"/><path d="M430.5118,48.6753q-.189-1.8-.2627-3.5249-.0762-1.7248-.15-3a32.41,32.41,0,0,0-.5625-4.05,13.6086,13.6086,0,0,0-1.3125-3.7124,10.1911,10.1911,0,0,0-2.3252-2.9248,9.0972,9.0972,0,0,0-3.6-1.8379v-.15a12.484,12.484,0,0,0,6.4873-5.25,16.1055,16.1055,0,0,0,1.9873-8.1748,15.0564,15.0564,0,0,0-1.0869-5.7378,13.858,13.858,0,0,0-3.15-4.6875,14.9649,14.9649,0,0,0-4.95-3.1875,17.2462,17.2462,0,0,0-6.4873-1.1621h-28.875v53.55h11.7754V33.9h11.7744q4.4253,0,6.375,1.95,1.95,1.9512,2.5508,6.15.45,3.2256.6748,6.75a20.7169,20.7169,0,0,0,1.2,6.0752h11.7744a7.8486,7.8486,0,0,1-1.2373-2.7373A23.4586,23.4586,0,0,1,430.5118,48.6753ZM416.9737,23.7q-2.0244,1.8-6.0752,1.8H397.9991V10.4253h12.8994q4.05,0,6.0752,1.7622Q419,13.9512,418.9991,17.85,418.9991,21.9,416.9737,23.7Z"/><polygon points="451.148 31.8 477.099 31.8 477.099 22.65 451.148 22.65 451.148 11.175 479.423 11.175 479.423 1.275 439.373 1.275 439.373 54.825 480.023 54.825 480.023 44.925 451.148 44.925 451.148 31.8"/><polygon points="573.793 1.275 573.793 1.274 521.173 1.275 521.173 37.2 521.023 37.2 498.673 1.275 486.973 1.275 486.973 54.825 497.998 54.825 497.998 18.975 498.148 18.975 520.423 54.825 532.198 54.825 532.198 11.174 548.398 11.175 548.398 54.825 560.172 54.825 560.172 11.175 576.222 11.175 576.222 1.275 573.793 1.275"/><polygon points="202.371 1.267 158.496 1.267 158.496 1.275 157.752 1.275 157.752 37.2 157.602 37.2 135.252 1.275 123.552 1.275 123.552 54.825 134.577 54.825 134.577 18.975 134.727 18.975 157.002 54.825 168.776 54.825 168.776 11.167 184.977 11.175 184.977 54.825 196.751 54.825 196.751 11.175 212.801 11.175 212.801 1.275 202.371 1.275 202.371 1.267"/><path d="M188.74,106.0415v10.9863a1.66,1.66,0,0,0,.354,1.1348,2.3574,2.3574,0,0,0,1.2085.623v.7813h-10.4v-.7813a2.4926,2.4926,0,0,0,1.2207-.6347,1.6556,1.6556,0,0,0,.3418-1.1231V88.8052a1.6992,1.6992,0,0,0-.3418-1.1475,2.5083,2.5083,0,0,0-1.2207-.6348v-.7812h20.8008a27.0552,27.0552,0,0,1,5.7739.4883,10.16,10.16,0,0,1,3.772,1.6846,8.4559,8.4559,0,0,1,2.6367,3.2714,10.6369,10.6369,0,0,1,.9521,4.4434,9.93,9.93,0,0,1-1.8066,5.9082,8.4557,8.4557,0,0,1-4.1382,3.0879,22.2664,22.2664,0,0,1-7.19.916Zm0-5.4932h11.1084a10.8545,10.8545,0,0,0,4.6631-.708,3.3888,3.3888,0,0,0,1.3794-1.4765,4.7884,4.7884,0,0,0,.5249-2.2344,4.7334,4.7334,0,0,0-.5249-2.209,3.391,3.391,0,0,0-1.3794-1.4775,10.77,10.77,0,0,0-4.6631-.708H188.74Z"/><path d="M252.3174,111.0708h-15.146l-2.2431,4.6875a3.9108,3.9108,0,0,0-.4639,1.5381q0,1.0752,1.6323,1.4892v.7813H225.0738v-.7813a2.9467,2.9467,0,0,0,1.4892-.6835,6.6963,6.6963,0,0,0,1.1719-1.9043l12.2559-25.61a4.873,4.873,0,0,0,.5859-1.9531q0-1.1221-1.416-1.6114v-.7812h11.8164v.7812q-1.4407.4161-1.44,1.44a3.5989,3.5989,0,0,0,.4638,1.6113l12.6953,25.6836a8.7,8.7,0,0,0,1.4161,2.2344,3.0978,3.0978,0,0,0,1.6357.7929v.7813H253.48v-.7813q1.6158-.2681,1.6162-1.5136a3.9118,3.9118,0,0,0-.4882-1.5137Zm-2.0928-4.5654L244.82,94.6343l-5.4913,11.8711Z"/><path d="M290.6807,105.9683v11.06a1.66,1.66,0,0,0,.3545,1.1348,2.3556,2.3556,0,0,0,1.208.623v.7813h-10.4v-.7813a2.4921,2.4921,0,0,0,1.2207-.6347,1.655,1.655,0,0,0,.3418-1.1231V88.8052a1.6986,1.6986,0,0,0-.3418-1.1475,2.5079,2.5079,0,0,0-1.2207-.6348v-.7812h20.85a32.7349,32.7349,0,0,1,6.042.44,10.728,10.728,0,0,1,3.8945,1.538,7.7564,7.7564,0,0,1,2.8809,3.4424,11.2588,11.2588,0,0,1,.9033,4.4922q0,8.1547-9.0576,9.5459l6.47,9.2041a20.5211,20.5211,0,0,0,2.503,3.1123,3.15,3.15,0,0,0,1.94.77v.7813h-12.04v-.7813q1.2421-.1947,1.2431-.8789a6.24,6.24,0,0,0-1.1455-2.124l-6.749-9.8144Zm0-5.4932h11.2305a28.5949,28.5949,0,0,0,3.5156-.1465,5.5482,5.5482,0,0,0,1.88-.61,4.4461,4.4461,0,0,0,0-7.2266A5.2735,5.2735,0,0,0,305.44,91.87a30.6784,30.6784,0,0,0-3.5283-.1347H290.6807Z"/><path d="M337.0977,117.0034V88.7808a1.6573,1.6573,0,0,0-.3418-1.1231,2.5107,2.5107,0,0,0-1.2207-.6348v-.7812h10.4v.7812a2.3161,2.3161,0,0,0-1.2207.6221,1.704,1.704,0,0,0-.3418,1.1358v28.2226a1.6989,1.6989,0,0,0,.3545,1.1592,2.3513,2.3513,0,0,0,1.208.623v.7813h-10.4v-.7813a2.495,2.495,0,0,0,1.2207-.6347A1.6956,1.6956,0,0,0,337.0977,117.0034Z"/><path d="M396.1846,89.064l-3.9795,7.8466-.6836-.3906c.0156-.1621.0244-.2929.0244-.3906q0-.829-1.416-1.7822A17.4081,17.4081,0,0,0,379.9248,91.32a14.9585,14.9585,0,0,0-4.5654.6338,5.4562,5.4562,0,0,0-2.332,1.4639,3.0893,3.0893,0,0,0-.8906,2.1211q0,1.8778,2.2705,2.5615a35.6954,35.6954,0,0,0,5.0293.7314l3.833.39a31.4661,31.4661,0,0,1,5.5293,1.001,13,13,0,0,1,3.748,1.78,8.38,8.38,0,0,1,2.625,3.1475,9.2931,9.2931,0,0,1,.9639,4.1719,9.4972,9.4972,0,0,1-2.2705,6.2451,12.2022,12.2022,0,0,1-6.3721,3.6836,25.53,25.53,0,0,1-6.9092.9023,29.2856,29.2856,0,0,1-13.0615-3.1738,6.9785,6.9785,0,0,0-1.6357-.6348,2.0558,2.0558,0,0,0-1.001.5371l-.708-.3662,3.6133-8.1787.708.3418v.3174a2.689,2.689,0,0,0,1.05,2.0264,13.3122,13.3122,0,0,0,4.9072,2.4414,21.3552,21.3552,0,0,0,6.2988,1.0254,12.7649,12.7649,0,0,0,5.542-1.0967,5.3756,5.3756,0,0,0,2.0264-1.62,3.4758,3.4758,0,0,0,.7568-2.1084,2.4424,2.4424,0,0,0-1.7822-2.3633,23.7609,23.7609,0,0,0-5.0293-.9014l-3.76-.39a51.655,51.655,0,0,1-5.3467-.7451,13.7874,13.7874,0,0,1-3.125-1.1368,8.1064,8.1064,0,0,1-3.4912-3.2988,8.8839,8.8839,0,0,1-1.1474-4.5439,9.2252,9.2252,0,0,1,2.9053-6.9883q3.8085-3.64,11.4257-3.6406a25.9312,25.9312,0,0,1,5.9571.65,45.0818,45.0818,0,0,1,6.8847,2.39,7.543,7.543,0,0,0,1.7334.5645,2.0145,2.0145,0,0,0,1.1963-.5645Z"/></g></g></svg>